<svg version="1.1" id="Layer_1" xmlns="http://www.w3.org/2000/svg" xmlns:xlink="http://www.w3.org/1999/xlink" x="0px" y="0px"
	 width="100%" viewBox="0 0 192 192" enable-background="new 0 0 192 192" xml:space="preserve">
<path fill="#000000" opacity="1.000000" stroke="none" 
	d="
M92.170929,149.309265 
	C82.253883,153.566345 72.150475,155.592712 61.929653,157.085037 
	C56.383121,157.894852 52.390430,155.180832 51.916523,150.619247 
	C51.483135,146.447708 54.863075,143.297943 60.392979,142.707947 
	C82.582512,140.340515 101.591316,131.377335 117.163612,115.304611 
	C120.776344,111.575783 124.063400,107.621353 125.805061,102.609779 
	C127.843948,96.742905 124.721222,91.618782 118.472496,91.427475 
	C105.919388,91.043167 94.131828,94.351189 82.849205,99.666977 
	C80.827988,100.619255 80.115562,102.485085 79.480377,104.393562 
	C77.222252,111.178299 75.022919,117.982750 72.738174,124.758446 
	C70.873222,130.289169 67.672806,132.358322 63.160244,131.080231 
	C59.208157,129.960892 57.299286,126.232849 58.940956,120.819771 
	C62.029320,110.636513 65.585800,100.593590 69.030151,90.520531 
	C71.175522,84.246376 73.472214,78.023964 76.139183,70.550385 
	C69.806602,73.390404 65.337440,76.877464 61.130562,80.722969 
	C55.592861,85.784981 51.562813,86.652969 48.262417,83.317940 
	C44.530170,79.546524 45.392971,75.531372 51.160069,70.199440 
	C58.816994,63.120277 67.443764,57.473660 77.143234,53.681404 
	C81.237198,52.080761 83.843750,49.817722 84.821556,45.434422 
	C85.471085,42.522743 86.658554,39.725952 90.014641,38.635593 
	C95.058609,36.996853 98.192116,39.443249 100.036713,46.940266 
	C107.763557,46.899738 116.293167,45.474056 121.252594,53.862865 
	C126.036888,61.955437 121.390160,68.840576 117.793907,75.693840 
	C119.141632,77.320061 120.957382,77.141670 122.493210,77.482506 
	C138.274323,80.984695 145.571198,96.065460 138.195602,110.581131 
	C133.445557,119.929581 126.296204,127.400742 118.231758,133.976028 
	C110.441139,140.328049 101.841049,145.367813 92.170929,149.309265 
M105.503441,67.026558 
	C106.520058,65.440559 108.482285,64.285492 107.924034,61.955017 
	C96.138885,59.717575 90.326279,64.896179 89.858574,78.528641 
	C96.070717,76.128952 100.843536,72.263245 105.503441,67.026558 
z"/>
<path fill="#000000" opacity="1.000000" stroke="none" 
	d="
M148.678375,145.718811 
	C142.522400,148.116379 137.479385,151.501495 132.975998,155.794037 
	C129.048538,159.537628 125.048737,159.819656 121.974686,156.831085 
	C118.743950,153.690201 119.053230,149.369354 123.056404,145.478119 
	C130.320297,138.417343 138.807663,133.367432 148.608444,130.673843 
	C153.810410,129.244186 157.743378,131.183655 158.898941,135.547623 
	C159.908615,139.360596 157.549637,142.743179 152.798294,144.303253 
	C151.539658,144.716507 150.285446,145.143173 148.678375,145.718811 
z"/>
</svg>
