<svg version="1.1" id="Layer_1" xmlns="http://www.w3.org/2000/svg" xmlns:xlink="http://www.w3.org/1999/xlink" x="0px" y="0px"
	 width="100%" viewBox="0 0 200 200" enable-background="new 0 0 200 200" xml:space="preserve">
<path fill="#FFFFFF" opacity="1.000000" stroke="none" 
	d="
M128.000000,201.000000 
	C85.333336,201.000000 43.166672,201.000000 1.000006,201.000000 
	C1.000004,134.333344 1.000004,67.666679 1.000002,1.000015 
	C67.666656,1.000010 134.333313,1.000010 200.999969,1.000005 
	C200.999985,67.666649 200.999985,134.333298 201.000000,200.999969 
	C176.833328,201.000000 152.666672,201.000000 128.000000,201.000000 
M42.000000,139.000000 
	C42.000000,139.000000 41.992241,139.007416 42.131271,139.506897 
	C42.408596,139.702866 42.685917,139.898834 43.184200,140.703720 
	C44.388329,141.544815 45.592461,142.385895 47.145947,143.726807 
	C47.678768,144.018433 48.211590,144.310043 49.130505,144.976456 
	C49.765865,145.277588 50.401230,145.578720 51.592613,146.327484 
	C54.065071,147.207397 56.537533,148.087311 59.594109,149.419662 
	C62.058258,149.806366 64.522408,150.193069 67.848602,150.835983 
	C70.235184,150.827744 72.621765,150.819519 75.904594,150.949448 
	C78.923538,150.905777 81.942482,150.862106 85.888176,150.953690 
	C90.255142,150.922928 94.622101,150.892166 99.919533,150.986755 
	C105.943176,150.910019 111.966827,150.833298 118.696198,150.804871 
	C119.132591,150.643631 119.568985,150.482391 120.626701,150.453018 
	C121.678329,150.255615 122.729965,150.058228 124.508728,149.973190 
	C125.658981,150.264816 126.809242,150.556442 128.871857,150.976227 
	C146.708206,150.901611 160.823288,144.776245 168.168411,126.389252 
	C168.551544,124.965538 168.934662,123.541824 169.759094,121.563278 
	C170.077225,119.681915 170.395370,117.800560 170.943085,115.122688 
	C170.977386,112.078850 171.011688,109.035019 171.207092,105.127090 
	C171.027588,102.541656 170.848099,99.956215 170.651291,97.311203 
	C170.651291,97.311203 170.690201,97.262894 171.096466,96.605408 
	C171.054993,95.067749 171.013519,93.530090 171.097595,91.199028 
	C171.013779,90.134094 170.929977,89.069168 170.946548,87.209717 
	C170.527023,85.146507 170.107483,83.083290 169.713089,80.322380 
	C168.867828,78.460320 168.022568,76.598251 167.192978,74.058075 
	C166.757416,73.057343 166.321854,72.056610 165.791748,70.428513 
	C164.964905,69.234810 164.138062,68.041107 163.124191,66.186775 
	C160.872223,64.044289 158.620255,61.901806 156.282883,59.785061 
	C156.282883,59.785061 156.220963,59.849186 156.104889,59.256424 
	C155.779572,59.025776 155.454239,58.795128 154.923584,58.041134 
	C154.281235,57.724422 153.638901,57.407707 152.720352,56.869827 
	C152.720352,56.869827 152.366592,56.877586 151.922577,56.377411 
	C151.314728,56.118225 150.706894,55.859039 149.670029,55.126022 
	C148.674255,54.807743 147.678482,54.489468 146.271423,53.611820 
	C140.978195,52.720276 135.705368,51.638443 130.377823,51.066692 
	C128.990402,50.917789 127.432259,52.359711 125.229912,53.247780 
	C124.498062,53.142403 123.766212,53.037029 122.551735,52.417965 
	C120.686638,52.037563 118.821548,51.657162 116.053391,51.034332 
	C108.706650,51.408443 101.359909,51.782551 93.186966,52.010609 
	C91.793510,52.059128 90.400055,52.107647 88.165329,52.015057 
	C86.463051,51.972294 84.760780,51.929531 82.542442,51.226852 
	C78.362778,51.540482 74.183105,51.854107 69.178993,52.031147 
	C67.787735,52.056339 66.396484,52.081532 64.345016,51.926952 
	C63.896454,51.996525 63.447895,52.066097 62.236294,52.056705 
	C59.827782,52.791550 57.419266,53.526390 54.349255,54.368484 
	C52.233116,55.570599 50.116978,56.772713 47.321556,58.084641 
	C44.092220,61.672176 40.862888,65.259712 37.155632,69.208107 
	C36.737938,70.108025 36.320248,71.007950 35.366196,72.373901 
	C33.923775,78.894165 32.481358,85.414421 31.058445,92.648308 
	C31.385509,93.784279 31.712572,94.920250 31.965170,96.734146 
	C31.921818,97.413628 31.878464,98.093109 31.362770,99.395439 
	C31.932592,107.207298 32.502415,115.019165 33.059956,123.404106 
	C33.248913,123.725899 33.437874,124.047691 33.705025,125.070663 
	C34.451218,126.730583 35.197411,128.390503 36.008617,130.716293 
	C37.190777,132.511337 38.372940,134.306381 39.764214,136.679062 
	C40.184101,137.103287 40.603989,137.527512 40.996208,137.995789 
	C40.996208,137.995789 41.047241,137.985718 41.161270,138.479752 
	C41.438110,138.655914 41.714951,138.832077 42.000000,139.000000 
z"/>
<path fill="#195EE7" opacity="1.000000" stroke="none" 
	d="
M167.796143,127.037567 
	C160.823288,144.776245 146.708206,150.901611 128.603394,150.645325 
	C130.539810,148.871460 132.744675,147.428482 135.307800,145.961578 
	C136.395401,145.110397 137.124741,144.283157 137.963531,143.254868 
	C138.526306,142.651672 138.979645,142.249542 139.788208,141.810333 
	C140.664246,141.075729 141.185059,140.378220 141.751938,139.780090 
	C141.798004,139.879471 141.647995,139.719818 141.965683,139.680862 
	C142.509628,139.082916 142.735901,138.523911 142.981689,137.980804 
	C143.001221,137.996704 142.959030,137.972733 143.206360,137.844620 
	C143.607086,137.387482 143.760468,137.058441 143.975983,136.466705 
	C144.390945,135.815033 144.743790,135.426086 145.400192,134.998566 
	C146.111603,134.560898 146.519424,134.161758 146.960297,133.462860 
	C147.066376,132.767700 147.139450,132.372299 147.394501,131.858154 
	C147.798050,131.535873 147.937973,131.286545 148.048492,130.759674 
	C148.100769,130.527985 148.216599,130.067307 148.415192,130.047791 
	C148.613770,130.028275 149.012421,130.006592 149.307053,130.150696 
	C150.275955,130.749847 151.474838,131.674866 151.548920,131.592194 
	C154.559814,128.231476 159.099625,130.231445 162.462769,128.417496 
	C164.096252,127.536453 165.466080,126.166542 166.973694,125.304161 
	C167.260132,126.072769 167.528137,126.555168 167.796143,127.037567 
z"/>
<path fill="#115BED" opacity="1.000000" stroke="none" 
	d="
M120.005379,150.321136 
	C119.568985,150.482391 119.132591,150.643631 118.046242,150.547501 
	C115.600334,150.181381 113.804382,150.072632 112.005768,149.544266 
	C113.003677,144.128418 114.004265,139.132172 115.306534,134.063431 
	C116.021217,133.966095 116.434212,133.941254 117.324707,133.942444 
	C125.117737,133.968475 132.433258,133.968475 139.869293,133.968475 
	C139.921005,135.075806 139.966522,136.050537 140.005005,137.012024 
	C139.997971,136.998779 140.027252,137.005325 139.780197,137.122345 
	C139.369370,137.555969 139.205597,137.872543 138.903900,138.488159 
	C133.877274,142.195801 128.988586,145.604401 123.752106,148.990814 
	C122.271317,149.419464 121.138344,149.870300 120.005379,150.321136 
z"/>
<path fill="#175EE9" opacity="1.000000" stroke="none" 
	d="
M123.034363,52.931656 
	C123.766212,53.037029 124.498062,53.142403 125.612701,53.143349 
	C125.995491,53.038918 125.958061,53.043152 125.929062,53.332382 
	C126.255051,53.754211 126.610046,53.886814 127.164917,54.288624 
	C131.615570,58.275337 135.866348,61.992847 140.171539,65.991882 
	C140.517731,66.503258 140.809509,66.733109 141.060516,66.969002 
	C141.019745,66.975044 141.064011,66.905525 141.056793,67.243027 
	C140.510635,68.288612 139.929230,69.639862 139.439178,69.607506 
	C132.954041,69.179306 126.481728,68.556618 120.009399,67.614380 
	C120.591446,65.614822 121.170311,63.983440 121.751595,62.345242 
	C119.641930,61.221203 117.824860,60.253063 115.868073,59.210480 
	C118.685051,56.742355 120.859703,54.837006 123.034363,52.931656 
z"/>
<path fill="#EB5043" opacity="1.000000" stroke="none" 
	d="
M31.835110,98.772591 
	C31.878464,98.093109 31.921818,97.413628 32.286346,96.214165 
	C34.402309,93.130035 36.197098,90.565895 38.219193,87.893814 
	C38.625347,87.508987 38.804195,87.232101 38.992279,86.977921 
	C39.001511,87.000610 38.955524,86.983681 39.191139,86.881851 
	C39.608692,86.498093 39.790630,86.216171 39.983997,85.964996 
	C39.995430,85.995735 39.933994,85.972763 40.173283,85.876816 
	C40.598534,85.500435 40.784492,85.220009 40.981602,84.970627 
	C40.992752,85.001671 40.943951,84.957207 41.365715,84.974503 
	C43.462029,85.136009 45.136574,85.280212 46.756199,85.419685 
	C42.916054,94.781570 39.419285,103.532112 35.653683,112.165405 
	C35.240456,113.112785 33.283699,113.386917 32.029404,113.508324 
	C31.955681,108.286423 31.895397,103.529503 31.835110,98.772591 
z"/>
<path fill="#816B86" opacity="1.000000" stroke="none" 
	d="
M66.986557,150.579773 
	C64.522408,150.193069 62.058258,149.806366 59.340218,148.830933 
	C61.477463,143.062897 65.101486,138.257492 64.419464,132.000000 
	C67.557289,132.334839 70.281456,132.690414 73.004227,133.437897 
	C70.997406,139.413132 68.991982,144.996445 66.986557,150.579773 
z"/>
<path fill="#3E7ECA" opacity="1.000000" stroke="none" 
	d="
M94.013168,52.156662 
	C101.359909,51.782551 108.706650,51.408443 116.273163,51.368027 
	C115.662949,51.805820 114.832970,51.909924 113.575356,52.007324 
	C111.437309,52.009907 109.726898,52.019192 107.594017,52.019600 
	C104.529366,51.741852 102.905807,52.271088 102.907318,55.585213 
	C102.909355,60.038044 102.328293,64.491142 101.575241,69.028893 
	C99.434372,69.055458 97.715782,68.997253 95.946625,68.546661 
	C95.268425,62.821732 94.640800,57.489197 94.013168,52.156662 
z"/>
<path fill="#93C285" opacity="1.000000" stroke="none" 
	d="
M37.633553,68.847252 
	C40.862888,65.259712 44.092220,61.672176 47.696304,58.391335 
	C48.278919,60.916771 47.927952,63.399723 48.823277,65.293449 
	C50.229603,68.268005 50.025978,70.558838 48.062065,73.063698 
	C47.411633,73.893280 47.397667,75.221893 46.905254,76.557175 
	C45.507393,77.551651 44.296982,78.311287 42.804588,78.840508 
	C42.582844,74.693649 43.989395,70.153168 37.964890,68.960052 
	C37.858097,68.912476 37.633553,68.847252 37.633553,68.847252 
z"/>
<path fill="#89B98F" opacity="1.000000" stroke="none" 
	d="
M47.092701,76.322342 
	C47.397667,75.221893 47.411633,73.893280 48.062065,73.063698 
	C50.025978,70.558838 50.229603,68.268005 48.823277,65.293449 
	C47.927952,63.399723 48.278919,60.916771 48.035946,58.336426 
	C50.116978,56.772713 52.233116,55.570599 54.677505,54.720901 
	C55.337025,60.727757 55.668289,66.382195 55.739265,72.227180 
	C54.330147,73.010124 53.181320,73.602524 51.705196,74.262482 
	C49.949497,74.994141 48.521099,75.658241 47.092701,76.322342 
z"/>
<path fill="#6F6894" opacity="1.000000" stroke="none" 
	d="
M67.417580,150.707886 
	C68.991982,144.996445 70.997406,139.413132 73.457397,133.367950 
	C77.273819,132.950974 80.635674,132.995850 83.777664,133.300323 
	C76.334450,137.142944 75.243050,143.764832 75.008347,150.811279 
	C72.621765,150.819519 70.235184,150.827744 67.417580,150.707886 
z"/>
<path fill="#669EA7" opacity="1.000000" stroke="none" 
	d="
M70.003441,52.167736 
	C74.183105,51.854107 78.362778,51.540482 82.786469,51.614433 
	C83.030502,52.002018 82.965370,52.101128 82.550385,52.065559 
	C77.988129,51.597614 75.143967,52.235222 76.913620,57.567978 
	C77.407471,59.056175 77.210434,60.878506 76.956078,62.488426 
	C76.415535,65.909851 77.727081,67.998810 80.549980,69.036339 
	C77.740730,69.059731 75.370262,69.010017 72.769524,68.672485 
	C71.693115,66.640022 70.307060,64.952599 70.114838,63.138649 
	C69.731186,59.518398 70.002579,55.828732 70.003441,52.167736 
z"/>
<path fill="#C05C60" opacity="1.000000" stroke="none" 
	d="
M39.555099,136.101425 
	C38.372940,134.306381 37.190777,132.511337 36.032433,130.329681 
	C36.056244,129.943069 36.168289,129.835098 36.469681,129.886688 
	C37.180801,129.956161 37.590523,129.974060 38.036140,130.333633 
	C38.678364,131.307480 39.284695,131.939651 39.891029,132.571823 
	C40.235981,132.113022 40.970409,131.426224 40.858418,131.234909 
	C40.375484,130.409927 39.644447,129.730179 39.004417,128.666260 
	C39.006245,127.893394 39.007378,127.451805 39.356033,126.972702 
	C42.473846,123.956009 45.244137,120.976837 48.329460,118.166794 
	C51.684822,123.154236 46.457623,126.538246 46.403755,130.929626 
	C46.370663,133.627396 44.850689,136.306915 43.746750,138.994476 
	C43.327393,138.995483 43.159653,138.996674 42.741959,138.996643 
	C42.492008,138.995407 41.992241,139.007416 41.992241,139.007416 
	C41.992241,139.007416 42.000000,139.000000 41.901024,138.782272 
	C41.616001,138.286133 41.364399,138.093185 41.047241,137.985718 
	C41.047241,137.985718 40.996208,137.995789 40.965073,137.648117 
	C40.474323,136.900772 40.014713,136.501099 39.555099,136.101425 
z"/>
<path fill="#3160D0" opacity="1.000000" stroke="none" 
	d="
M112.008430,149.963882 
	C113.804382,150.072632 115.600334,150.181381 117.693375,150.523346 
	C111.966827,150.833298 105.943176,150.910019 99.269951,150.707855 
	C98.078400,150.288223 97.536430,150.147491 96.995331,149.578094 
	C98.470200,144.104584 99.944199,139.059753 101.416382,134.021103 
	C104.061424,134.021103 106.038277,134.021103 107.966576,134.385162 
	C105.696449,139.605453 103.474884,144.461700 100.954178,149.971848 
	C103.481346,149.971848 105.249763,149.971848 107.433853,149.977249 
	C109.235825,149.976395 110.622124,149.970139 112.008430,149.963882 
z"/>
<path fill="#7FB297" opacity="1.000000" stroke="none" 
	d="
M55.999550,72.036629 
	C55.668289,66.382195 55.337025,60.727757 55.008255,54.667274 
	C57.419266,53.526390 59.827782,52.791550 62.544403,52.449295 
	C61.923988,55.521904 59.966492,58.354477 60.335316,60.842152 
	C60.766853,63.752838 59.472160,68.650230 65.397560,69.074081 
	C66.049973,69.244102 66.308105,69.322655 66.206413,69.570335 
	C62.564236,70.505180 59.281895,71.270905 55.999550,72.036629 
z"/>
<path fill="#4D77B2" opacity="1.000000" stroke="none" 
	d="
M171.045990,105.991180 
	C171.011688,109.035019 170.977386,112.078850 170.613159,115.260315 
	C170.185867,114.267723 170.088470,113.137497 169.985611,111.625275 
	C169.615479,110.576378 169.193115,109.303787 168.894714,109.332214 
	C163.201340,109.874733 158.174408,112.003342 153.986969,116.306305 
	C153.312714,117.420456 152.663925,118.236725 151.993683,118.662766 
	C152.336868,116.505264 152.701508,114.737976 153.325211,112.733673 
	C153.727463,111.331947 153.870651,110.167252 154.376984,108.961151 
	C155.709839,108.345024 156.634460,107.381310 157.657028,107.262825 
	C162.108261,106.747055 166.206894,102.237923 171.045990,105.991180 
z"/>
<path fill="#6166A1" opacity="1.000000" stroke="none" 
	d="
M75.456467,150.880371 
	C75.243050,143.764832 76.334450,137.142944 84.216721,133.224030 
	C87.242699,132.940720 89.609749,132.993332 91.770508,133.301544 
	C90.710907,133.706985 89.857597,133.856842 88.631821,134.008896 
	C83.225845,136.132385 80.194626,142.890671 81.890106,148.273804 
	C82.850548,149.304581 83.905983,150.061523 84.961426,150.818451 
	C81.942482,150.862106 78.923538,150.905777 75.456467,150.880371 
z"/>
<path fill="#ECCE44" opacity="1.000000" stroke="none" 
	d="
M125.974007,53.054947 
	C127.432259,52.359711 128.990402,50.917789 130.377823,51.066692 
	C135.705368,51.638443 140.978195,52.720276 146.245422,54.118874 
	C145.170837,59.372833 141.877731,59.876614 137.573242,58.903900 
	C134.218399,56.794388 131.165771,54.820736 127.743042,52.694332 
	C126.901321,52.708771 126.429695,52.875961 125.958061,53.043152 
	C125.958061,53.043152 125.995491,53.038918 125.974007,53.054947 
z"/>
<path fill="#BDB258" opacity="1.000000" stroke="none" 
	d="
M156.368286,59.759323 
	C158.620255,61.901806 160.872223,64.044289 162.886597,66.668350 
	C158.056656,70.172523 153.546326,73.450874 147.344116,71.695160 
	C146.420456,69.948517 145.672562,68.507812 145.352264,67.046394 
	C149.458084,66.211937 153.136307,65.398193 156.765411,64.595314 
	C156.601837,62.603458 156.485062,61.181393 156.368286,59.759323 
z"/>
<path fill="#92667A" opacity="1.000000" stroke="none" 
	d="
M64.005798,132.020737 
	C65.101486,138.257492 61.477463,143.062897 59.048164,148.604706 
	C56.537533,148.087311 54.065071,147.207397 51.541782,145.856110 
	C56.804771,141.882050 59.659157,136.941696 60.465252,130.690826 
	C61.869633,131.189728 62.937717,131.605240 64.005798,132.020737 
z"/>
<path fill="#508EBA" opacity="1.000000" stroke="none" 
	d="
M83.044502,51.944393 
	C84.760780,51.929531 86.463051,51.972294 88.594894,52.486549 
	C89.016518,58.283665 89.008575,63.609287 88.748169,68.999817 
	C88.325203,69.031082 88.154694,68.997444 87.726212,68.690193 
	C86.082764,68.094307 84.697281,67.772026 83.075554,67.394783 
	C82.962685,64.979729 82.782433,62.763550 82.774788,60.546776 
	C82.765091,57.731812 82.895416,54.916367 82.965363,52.101128 
	C82.965370,52.101128 83.030502,52.002018 83.044502,51.944393 
z"/>
<path fill="#ABA762" opacity="1.000000" stroke="none" 
	d="
M147.519897,72.001106 
	C153.546326,73.450874 158.056656,70.172523 162.980103,66.998665 
	C164.138062,68.041107 164.964905,69.234810 165.583313,70.978317 
	C160.467209,73.854149 155.559555,76.180176 150.678375,78.438492 
	C150.704880,78.370781 150.814331,78.283463 150.802979,78.019402 
	C150.566742,77.500984 150.341873,77.246628 149.890121,76.891144 
	C149.663239,76.790009 149.196747,76.619164 149.181763,76.452026 
	C149.166779,76.284889 149.003799,75.991501 149.010773,75.692589 
	C148.569351,74.825798 148.120941,74.257919 147.658386,73.654175 
	C147.644226,73.618301 147.586487,73.567162 147.621811,73.305405 
	C147.611389,72.696136 147.565643,72.348625 147.519897,72.001106 
z"/>
<path fill="#2067E1" opacity="1.000000" stroke="none" 
	d="
M114.002983,52.014027 
	C114.832970,51.909924 115.662949,51.805820 116.724693,51.489239 
	C118.821548,51.657162 120.686638,52.037563 122.793045,52.674812 
	C120.859703,54.837006 118.685051,56.742355 115.868073,59.210480 
	C117.824860,60.253063 119.641930,61.221203 121.751595,62.345242 
	C121.170311,63.983440 120.591446,65.614822 119.572113,67.621552 
	C117.092941,67.990753 115.054222,67.984596 113.060822,67.579117 
	C113.405083,62.124535 113.704033,57.069279 114.002983,52.014027 
z"/>
<path fill="#4687C2" opacity="1.000000" stroke="none" 
	d="
M89.000641,68.934906 
	C89.008575,63.609287 89.016518,58.283665 89.015533,52.557102 
	C90.400055,52.107647 91.793510,52.059128 93.600067,52.083633 
	C94.640800,57.489197 95.268425,62.821732 95.515350,68.628189 
	C93.089981,69.046371 91.045311,68.990639 89.000641,68.934906 
z"/>
<path fill="#CCEBFE" opacity="1.000000" stroke="none" 
	d="
M124.099915,149.013000 
	C128.988586,145.604401 133.877274,142.195801 139.150665,138.370026 
	C139.699341,137.637009 139.863297,137.321167 140.027252,137.005325 
	C140.027252,137.005325 139.997971,136.998779 140.310059,136.854630 
	C141.682159,134.911407 142.742188,133.112335 144.198822,130.640121 
	C140.757324,131.183716 138.377106,131.559692 136.194153,131.621002 
	C140.237457,130.530807 144.083511,129.755295 147.983749,129.256287 
	C148.097473,129.710968 148.157028,129.889130 148.216599,130.067307 
	C148.216599,130.067307 148.100769,130.527985 147.810059,130.833847 
	C147.136276,131.315887 147.033997,131.594955 147.212524,131.976913 
	C147.139450,132.372299 147.066376,132.767700 146.653198,133.511230 
	C145.907578,134.251968 145.502090,134.644547 145.096619,135.037125 
	C144.743790,135.426086 144.390945,135.815033 143.728989,136.596146 
	C143.266266,137.316452 143.112656,137.644592 142.959045,137.972733 
	C142.959030,137.972733 143.001221,137.996704 142.721558,138.109314 
	C142.177261,138.721207 141.912628,139.220520 141.647995,139.719818 
	C141.647995,139.719818 141.798004,139.879471 141.448273,139.881577 
	C140.543365,140.538254 139.988174,141.192825 139.432983,141.847397 
	C138.979645,142.249542 138.526306,142.651672 137.669098,143.405273 
	C136.493347,144.499664 135.721451,145.242599 134.949554,145.985519 
	C132.744675,147.428482 130.539810,148.871460 128.147217,150.581253 
	C126.809242,150.556442 125.658981,150.264816 124.213341,149.700806 
	C123.917953,149.428406 124.099922,149.013000 124.099915,149.013000 
z"/>
<path fill="#3E71C4" opacity="1.000000" stroke="none" 
	d="
M152.015137,119.052994 
	C152.663925,118.236725 153.312714,117.420456 154.392960,116.303673 
	C159.879974,114.671196 164.935532,113.339226 169.991089,112.007263 
	C170.088470,113.137497 170.185867,114.267723 170.498383,115.658569 
	C170.395370,117.800560 170.077225,119.681915 169.215485,121.801743 
	C168.456039,122.020157 168.240189,122.000092 168.022919,121.731087 
	C168.021500,121.482147 168.020309,120.984268 168.161346,120.657394 
	C168.223618,119.139305 168.576889,117.482834 167.940613,116.891930 
	C167.342834,116.336792 165.658127,116.739616 164.526443,117.021347 
	C162.803085,117.450371 161.183090,118.425858 159.450348,118.660233 
	C155.040390,119.256767 152.877289,121.919197 151.636047,125.987442 
	C150.818207,125.959831 150.351334,125.931618 149.892761,125.532303 
	C150.605728,123.125137 151.310440,121.089066 152.015137,119.052994 
z"/>
<path fill="#839082" opacity="1.000000" stroke="none" 
	d="
M169.687943,81.020081 
	C170.107483,83.083290 170.527023,85.146507 170.473450,87.604752 
	C164.394379,89.338913 158.788437,90.678040 153.100739,91.608803 
	C152.951294,89.817268 152.883606,88.434097 153.239365,87.036667 
	C159.004532,85.021637 164.346237,83.020859 169.687943,81.020081 
z"/>
<path fill="#6DA5A0" opacity="1.000000" stroke="none" 
	d="
M66.566246,69.401215 
	C66.308105,69.322655 66.049973,69.244102 65.396599,68.623993 
	C65.001709,66.110107 64.953537,64.136299 65.013245,62.165760 
	C65.114876,58.811707 67.877037,55.460434 65.005226,52.106728 
	C66.396484,52.081532 67.787735,52.056339 69.591217,52.099442 
	C70.002579,55.828732 69.731186,59.518398 70.114838,63.138649 
	C70.307060,64.952599 71.693115,66.640022 72.359917,68.745491 
	C70.309143,69.204613 68.437691,69.302917 66.566246,69.401215 
z"/>
<path fill="#4E63B2" opacity="1.000000" stroke="none" 
	d="
M89.004280,134.006683 
	C89.857597,133.856842 90.710907,133.706985 92.026314,133.242798 
	C92.657417,132.972977 92.826424,133.017502 92.990982,133.440796 
	C91.061043,138.890060 89.135559,143.960571 87.025566,149.516953 
	C88.600281,149.704376 89.804115,149.847656 91.435577,149.992889 
	C93.573616,149.998825 95.284035,150.002792 96.994453,150.006760 
	C97.536430,150.147491 98.078400,150.288223 98.804718,150.645203 
	C94.622101,150.892166 90.255142,150.922928 85.424805,150.886078 
	C83.905983,150.061523 82.850548,149.304581 82.225128,148.125916 
	C84.771523,143.138351 86.887901,138.572525 89.004280,134.006683 
z"/>
<path fill="#F8EDDA" opacity="1.000000" stroke="none" 
	d="
M46.905254,76.557175 
	C48.521099,75.658241 49.949497,74.994141 51.700279,74.539413 
	C52.900082,75.181801 53.777508,75.614822 54.979309,76.207916 
	C53.790455,77.821754 52.603886,79.432480 51.302391,80.722885 
	C51.933815,77.927643 50.711300,77.290993 48.901314,78.524658 
	C46.092361,80.439232 43.581295,82.790855 40.943947,84.957199 
	C40.943951,84.957207 40.992752,85.001671 40.733231,85.054001 
	C40.293804,85.395134 40.113899,85.683952 39.933994,85.972763 
	C39.933994,85.972763 39.995430,85.995735 39.736847,86.051437 
	C39.304020,86.399323 39.129772,86.691505 38.955524,86.983681 
	C38.955524,86.983681 39.001511,87.000610 38.749489,87.067406 
	C38.328938,87.423386 38.160412,87.712570 37.991890,88.001755 
	C36.197098,90.565895 34.402309,93.130035 32.323578,95.875198 
	C31.712572,94.920250 31.385509,93.784279 31.355228,92.171715 
	C34.040760,88.780396 36.429512,85.865669 39.110249,82.801895 
	C40.630348,81.458878 41.858456,80.264900 43.086567,79.070930 
	C44.296982,78.311287 45.507393,77.551651 46.905254,76.557175 
z"/>
<path fill="#9F6574" opacity="1.000000" stroke="none" 
	d="
M60.128952,130.607437 
	C59.659157,136.941696 56.804771,141.882050 51.263771,145.632309 
	C50.401230,145.578720 49.765865,145.277588 49.107876,144.440491 
	C52.228203,139.033875 57.292263,134.871643 54.966179,127.715012 
	C54.979294,127.271652 54.983376,127.094208 55.281944,127.052467 
	C57.093937,128.327942 58.611443,129.467682 60.128952,130.607437 
z"/>
<path fill="#738887" opacity="1.000000" stroke="none" 
	d="
M153.182480,92.017166 
	C158.788437,90.678040 164.394379,89.338913 170.423248,88.002014 
	C170.929977,89.069168 171.013779,90.134094 170.672272,91.558571 
	C168.455322,92.107986 166.604797,92.075935 164.884064,92.532768 
	C161.003113,93.563087 157.186386,94.835243 153.251343,95.617126 
	C153.166916,94.155891 153.174698,93.086525 153.182480,92.017166 
z"/>
<path fill="#698491" opacity="1.000000" stroke="none" 
	d="
M153.343536,96.009003 
	C157.186386,94.835243 161.003113,93.563087 164.884064,92.532768 
	C166.604797,92.075935 168.455322,92.107986 170.609497,91.955276 
	C171.013519,93.530090 171.054993,95.067749 170.410080,96.856628 
	C164.276352,98.072220 158.829025,99.036591 153.292267,99.607925 
	C153.249741,98.146263 153.296646,97.077629 153.343536,96.009003 
z"/>
<path fill="#DBC343" opacity="1.000000" stroke="none" 
	d="
M137.875443,59.039757 
	C141.877731,59.876614 145.170837,59.372833 146.451050,54.398560 
	C147.678482,54.489468 148.674255,54.807743 150.009796,55.707607 
	C151.021896,56.485321 151.694244,56.681454 152.366592,56.877586 
	C152.366592,56.877586 152.720352,56.869827 152.857025,57.362446 
	C151.469452,59.473698 150.171616,61.449966 148.351944,62.601948 
	C146.793839,63.588348 144.637894,63.630383 142.553802,63.993778 
	C142.126999,63.704235 141.990356,63.457020 141.869049,62.901634 
	C141.507477,62.439491 141.228210,62.231537 140.974426,62.012321 
	C140.999939,62.001060 140.975479,62.051189 140.878326,61.818085 
	C140.509232,61.397583 140.237274,61.210182 139.692856,60.909210 
	C138.905411,60.210346 138.390427,59.625050 137.875443,59.039757 
z"/>
<path fill="#8D9677" opacity="1.000000" stroke="none" 
	d="
M169.700516,80.671234 
	C164.346237,83.020859 159.004532,85.021637 153.031433,86.789017 
	C152.315216,85.704147 152.230392,84.852669 152.503296,84.047272 
	C155.986954,85.213577 158.727890,85.566887 159.370392,81.003357 
	C162.217239,78.910126 164.697266,76.823151 167.177307,74.736176 
	C168.022568,76.598251 168.867828,78.460320 169.700516,80.671234 
z"/>
<path fill="#74AB9A" opacity="1.000000" stroke="none" 
	d="
M64.675125,52.016838 
	C67.877037,55.460434 65.114876,58.811707 65.013245,62.165760 
	C64.953537,64.136299 65.001709,66.110107 65.002327,68.532539 
	C59.472160,68.650230 60.766853,63.752838 60.335316,60.842152 
	C59.966492,58.354477 61.923988,55.521904 62.925919,52.488777 
	C63.447895,52.066097 63.896454,51.996525 64.675125,52.016838 
z"/>
<path fill="#567AA6" opacity="1.000000" stroke="none" 
	d="
M171.126541,105.559135 
	C166.206894,102.237923 162.108261,106.747055 157.657028,107.262825 
	C156.634460,107.381310 155.709839,108.345024 154.180359,108.956970 
	C153.620575,108.994194 153.227570,108.990891 153.168625,108.594513 
	C153.187607,107.137115 153.265533,106.076080 153.717316,105.011528 
	C159.616989,102.462265 165.142807,99.916527 170.668610,97.370789 
	C170.848099,99.956215 171.027588,102.541656 171.126541,105.559135 
z"/>
<path fill="#9B9E68" opacity="1.000000" stroke="none" 
	d="
M167.185150,74.397125 
	C164.697266,76.823151 162.217239,78.910126 159.125702,80.722565 
	C156.145294,80.688454 153.776382,80.928871 151.258514,80.928917 
	C150.956985,79.961105 150.804443,79.233650 150.651886,78.506210 
	C155.559555,76.180176 160.467209,73.854149 165.630585,71.291992 
	C166.321854,72.056610 166.757416,73.057343 167.185150,74.397125 
z"/>
<path fill="#63829D" opacity="1.000000" stroke="none" 
	d="
M170.659943,97.340996 
	C165.142807,99.916527 159.616989,102.462265 153.634949,104.598282 
	C153.246368,102.792702 153.314026,101.396828 153.381683,100.000961 
	C158.829025,99.036591 164.276352,98.072220 170.206940,97.185371 
	C170.690201,97.262894 170.651291,97.311203 170.659943,97.340996 
z"/>
<path fill="#A65F6B" opacity="1.000000" stroke="none" 
	d="
M54.957146,127.980919 
	C57.292263,134.871643 52.228203,139.033875 48.914825,144.253098 
	C48.211590,144.310043 47.678768,144.018433 47.030731,143.408051 
	C46.915516,143.089279 47.032459,142.950043 47.274101,142.791901 
	C47.676907,142.089890 47.838074,141.546021 48.152443,140.647675 
	C48.538746,139.038406 48.444527,137.583252 49.066818,136.566711 
	C50.876469,133.610641 52.973083,130.830231 54.957146,127.980919 
z"/>
<path fill="#CDBB4C" opacity="1.000000" stroke="none" 
	d="
M142.746353,64.090088 
	C144.637894,63.630383 146.793839,63.588348 148.351944,62.601948 
	C150.171616,61.449966 151.469452,59.473698 152.995117,57.473030 
	C153.638901,57.407707 154.281235,57.724422 155.083710,58.609241 
	C155.569550,59.401295 155.895248,59.625244 156.220963,59.849190 
	C156.220963,59.849186 156.282883,59.785061 156.325592,59.772194 
	C156.485062,61.181393 156.601837,62.603458 156.765411,64.595314 
	C153.136307,65.398193 149.458084,66.211937 145.370087,67.034653 
	C144.960312,67.043617 144.954086,67.068230 144.936539,66.729523 
	C144.464020,65.963036 144.009064,65.535263 143.361420,64.990417 
	C142.939697,64.659874 142.798889,64.398781 142.746353,64.090088 
z"/>
<path fill="#ADCF8A" opacity="1.000000" stroke="none" 
	d="
M38.818260,82.950943 
	C36.429512,85.865669 34.040760,88.780396 31.345474,91.814903 
	C32.481358,85.414421 33.923775,78.894165 35.690811,72.193680 
	C36.015430,72.013451 36.128437,72.118904 36.087807,72.516151 
	C35.733467,74.525284 35.736317,76.289749 35.046696,77.720436 
	C32.978909,82.010269 34.785057,83.212135 38.818260,82.950943 
z"/>
<path fill="#D8645C" opacity="1.000000" stroke="none" 
	d="
M31.598942,99.084015 
	C31.895397,103.529503 31.955681,108.286423 32.058746,113.886703 
	C32.724876,117.153053 33.348221,119.576027 33.778252,122.085251 
	C33.343174,122.336250 33.172276,122.556091 33.072239,122.831024 
	C32.502415,115.019165 31.932592,107.207298 31.598942,99.084015 
z"/>
<path fill="#A65F6B" opacity="1.000000" stroke="none" 
	d="
M42.991913,138.997864 
	C43.159653,138.996674 43.327393,138.995483 43.914555,139.250183 
	C45.225201,140.007492 46.116425,140.508926 47.007950,141.333862 
	C47.016323,142.088257 47.024391,142.519150 47.032459,142.950043 
	C47.032459,142.950043 46.915516,143.089279 46.856052,143.158142 
	C45.592461,142.385895 44.388329,141.544815 43.086937,140.124893 
	C42.990421,139.363327 42.991169,139.180588 42.991913,138.997864 
z"/>
<path fill="#C05C60" opacity="1.000000" stroke="none" 
	d="
M35.999924,129.996750 
	C35.197411,128.390503 34.451218,126.730583 33.769341,124.619675 
	C33.833660,124.168694 34.042164,123.972778 34.312641,124.198120 
	C35.111507,126.227348 35.639896,128.031219 36.168289,129.835098 
	C36.168289,129.835098 36.056244,129.943069 35.999924,129.996750 
z"/>
<path fill="#306ACF" opacity="1.000000" stroke="none" 
	d="
M168.024338,121.980026 
	C168.240189,122.000092 168.456039,122.020157 168.994827,122.079163 
	C168.934662,123.541824 168.551544,124.965538 167.982269,126.713409 
	C167.528137,126.555168 167.260132,126.072769 167.243958,125.097626 
	C167.671967,123.729927 167.848160,122.854973 168.024338,121.980026 
z"/>
<path fill="#3160D0" opacity="1.000000" stroke="none" 
	d="
M123.752106,148.990814 
	C124.099922,149.013000 123.917953,149.428406 123.849777,149.644623 
	C122.729965,150.058228 121.678329,150.255615 120.316040,150.387085 
	C121.138344,149.870300 122.271317,149.419464 123.752106,148.990814 
z"/>
<path fill="#ADCF8A" opacity="1.000000" stroke="none" 
	d="
M35.958992,71.960663 
	C36.320248,71.007950 36.737938,70.108025 37.394592,69.027679 
	C37.633553,68.847252 37.858097,68.912476 37.933678,69.306961 
	C37.382317,70.507263 36.755379,71.313087 36.128437,72.118904 
	C36.128437,72.118904 36.015430,72.013451 35.958992,71.960663 
z"/>
<path fill="#B46065" opacity="1.000000" stroke="none" 
	d="
M39.659660,136.390244 
	C40.014713,136.501099 40.474323,136.900772 40.978905,137.626099 
	C40.603989,137.527512 40.184101,137.103287 39.659660,136.390244 
z"/>
<path fill="#C05C60" opacity="1.000000" stroke="none" 
	d="
M33.066097,123.117569 
	C33.172276,122.556091 33.343174,122.336250 33.790871,122.332954 
	C33.996807,122.494408 34.018517,122.989906 34.019470,123.235817 
	C34.020420,123.481728 34.042164,123.972778 34.042164,123.972778 
	C34.042164,123.972778 33.833660,124.168694 33.730247,124.269089 
	C33.437874,124.047691 33.248913,123.725899 33.066097,123.117569 
z"/>
<path fill="#CDBB4C" opacity="1.000000" stroke="none" 
	d="
M152.144592,56.627499 
	C151.694244,56.681454 151.021896,56.485321 150.224304,55.944527 
	C150.706894,55.859039 151.314728,56.118225 152.144592,56.627499 
z"/>
<path fill="#BDB258" opacity="1.000000" stroke="none" 
	d="
M156.162933,59.552807 
	C155.895248,59.625244 155.569550,59.401295 155.186386,58.870911 
	C155.454239,58.795128 155.779572,59.025776 156.162933,59.552807 
z"/>
<path fill="#B46065" opacity="1.000000" stroke="none" 
	d="
M42.741959,138.996643 
	C42.991169,139.180588 42.990421,139.363327 42.976456,139.820435 
	C42.685917,139.898834 42.408596,139.702866 42.061756,139.257156 
	C41.992241,139.007416 42.492008,138.995407 42.741959,138.996643 
z"/>
<path fill="#B46065" opacity="1.000000" stroke="none" 
	d="
M41.104256,138.232727 
	C41.364399,138.093185 41.616001,138.286133 41.896923,138.786392 
	C41.714951,138.832077 41.438110,138.655914 41.104256,138.232727 
z"/>
<path fill="#2666DA" opacity="1.000000" stroke="none" 
	d="
M168.022919,121.731087 
	C167.848160,122.854973 167.671967,123.729927 167.225525,124.811417 
	C165.466080,126.166542 164.096252,127.536453 162.462769,128.417496 
	C159.099625,130.231445 154.559814,128.231476 151.548920,131.592194 
	C151.474838,131.674866 150.275955,130.749847 149.207748,129.817535 
	C148.708328,129.134018 148.602829,128.927765 148.529846,128.730209 
	C148.562363,128.738922 148.619965,128.772247 148.967651,128.678604 
	C149.515778,127.688293 149.716187,126.791626 149.916840,125.913620 
	C149.917068,125.932274 149.884476,125.903412 149.884476,125.903412 
	C150.351334,125.931618 150.818207,125.959831 152.001984,125.952057 
	C157.400787,122.973457 162.746353,122.089935 168.020309,120.984268 
	C168.020309,120.984268 168.021500,121.482147 168.022919,121.731087 
z"/>
<path fill="#2666DA" opacity="1.000000" stroke="none" 
	d="
M135.307800,145.961578 
	C135.721451,145.242599 136.493347,144.499664 137.559662,143.606339 
	C137.124741,144.283157 136.395401,145.110397 135.307800,145.961578 
z"/>
<path fill="#2666DA" opacity="1.000000" stroke="none" 
	d="
M139.788208,141.810333 
	C139.988174,141.192825 140.543365,140.538254 141.402206,139.782196 
	C141.185059,140.378220 140.664246,141.075729 139.788208,141.810333 
z"/>
<path fill="#2666DA" opacity="1.000000" stroke="none" 
	d="
M141.965683,139.680862 
	C141.912628,139.220520 142.177261,138.721207 142.702026,138.093414 
	C142.735901,138.523911 142.509628,139.082916 141.965683,139.680862 
z"/>
<path fill="#2666DA" opacity="1.000000" stroke="none" 
	d="
M145.400192,134.998566 
	C145.502090,134.644547 145.907578,134.251968 146.620163,133.811005 
	C146.519424,134.161758 146.111603,134.560898 145.400192,134.998566 
z"/>
<path fill="#2666DA" opacity="1.000000" stroke="none" 
	d="
M143.206375,137.844620 
	C143.112656,137.644592 143.266266,137.316452 143.666870,136.858856 
	C143.760468,137.058441 143.607086,137.387482 143.206375,137.844620 
z"/>
<path fill="#2666DA" opacity="1.000000" stroke="none" 
	d="
M147.394501,131.858154 
	C147.033997,131.594955 147.136276,131.315887 147.757782,131.065536 
	C147.937973,131.286545 147.798050,131.535873 147.394501,131.858154 
z"/>
<path fill="#3E71C4" opacity="1.000000" stroke="none" 
	d="
M148.497345,128.721497 
	C148.602829,128.927765 148.708328,129.134018 148.913116,129.673431 
	C149.012421,130.006592 148.613770,130.028275 148.415192,130.047791 
	C148.157028,129.889130 148.097473,129.710968 148.115112,129.168365 
	C148.192307,128.803909 148.497345,128.721497 148.497345,128.721497 
z"/>
<path fill="#195CE8" opacity="1.000000" stroke="none" 
	d="
M112.005768,149.544266 
	C110.622124,149.970139 109.235825,149.976395 107.427734,149.584167 
	C108.674988,144.134460 110.344025,139.083221 112.295502,134.006363 
	C112.764954,133.952835 112.951950,133.924942 113.452637,133.920959 
	C114.179169,134.008545 114.592003,134.072250 115.004852,134.135941 
	C114.004265,139.132172 113.003677,144.128418 112.005768,149.544266 
z"/>
<path fill="#275ED5" opacity="1.000000" stroke="none" 
	d="
M135.996887,131.935654 
	C138.377106,131.559692 140.757324,131.183716 144.198822,130.640121 
	C142.742188,133.112335 141.682159,134.911407 140.317093,136.867874 
	C139.966522,136.050537 139.921005,135.075806 139.869293,133.968475 
	C132.433258,133.968475 125.117737,133.968475 117.586014,133.591232 
	C122.996681,132.864929 128.623550,132.515869 134.546143,132.178558 
	C135.226883,132.105438 135.611877,132.020554 135.996887,131.935654 
z"/>
<path fill="#CCEBFE" opacity="1.000000" stroke="none" 
	d="
M134.250412,132.166794 
	C128.623550,132.515869 122.996681,132.864929 117.108505,133.565216 
	C116.434212,133.941254 116.021217,133.966095 115.306534,134.063431 
	C114.592003,134.072250 114.179169,134.008545 113.189362,133.578613 
	C108.396973,133.042725 104.181549,132.873077 100.311752,132.473877 
	C111.855064,132.218491 123.052742,132.192642 134.250412,132.166794 
z"/>
<path fill="#275ED5" opacity="1.000000" stroke="none" 
	d="
M139.780197,137.122345 
	C139.863297,137.321167 139.699341,137.637009 139.288605,138.070984 
	C139.205597,137.872543 139.369370,137.555969 139.780197,137.122345 
z"/>
<path fill="#E9F1E8" opacity="1.000000" stroke="none" 
	d="
M142.553802,63.993778 
	C142.798889,64.398781 142.939697,64.659874 143.479828,65.279259 
	C144.178619,66.146179 144.566345,66.607208 144.954086,67.068230 
	C144.954086,67.068230 144.960312,67.043617 144.942474,67.055359 
	C145.672562,68.507812 146.420456,69.948517 147.344116,71.695160 
	C147.565643,72.348625 147.611389,72.696136 147.206955,73.402031 
	C145.178833,73.174400 143.600876,72.588379 142.398010,72.013824 
	C145.367401,69.262497 141.975632,68.497971 141.064011,66.905525 
	C141.064011,66.905525 141.019745,66.975044 140.996948,66.692902 
	C140.688477,66.177299 140.402802,65.943832 140.117126,65.710358 
	C135.866348,61.992847 131.615570,58.275337 127.407951,54.149300 
	C127.671776,53.442871 127.892448,53.144978 128.113129,52.847084 
	C131.165771,54.820736 134.218399,56.794388 137.573242,58.903896 
	C138.390427,59.625050 138.905411,60.210346 139.787018,61.144684 
	C140.427582,61.679546 140.701538,61.865372 140.975479,62.051193 
	C140.975479,62.051189 140.999939,62.001060 141.064682,62.261131 
	C141.403397,62.732742 141.677353,62.944283 141.951324,63.155823 
	C141.990356,63.457020 142.126999,63.704235 142.553802,63.993778 
z"/>
<path fill="#2F65CB" opacity="1.000000" stroke="none" 
	d="
M141.056793,67.243027 
	C141.975632,68.497971 145.367401,69.262497 142.106049,71.748672 
	C138.391174,70.801155 135.368591,69.737953 132.290298,69.539711 
	C125.549416,69.105606 118.780281,69.110153 112.130554,68.723312 
	C112.442116,68.252838 112.701149,68.075294 113.015511,67.978447 
	C115.054222,67.984596 117.092941,67.990753 119.568939,67.989723 
	C126.481728,68.556618 132.954041,69.179306 139.439178,69.607506 
	C139.929230,69.639862 140.510635,68.288612 141.056793,67.243027 
z"/>
<path fill="#FFFFFF" opacity="1.000000" stroke="none" 
	d="
M127.743042,52.694328 
	C127.892448,53.144978 127.671776,53.442871 127.208069,53.880093 
	C126.610046,53.886814 126.255051,53.754211 125.929062,53.332382 
	C126.429695,52.875961 126.901321,52.708771 127.743042,52.694328 
z"/>
<path fill="#2F65CB" opacity="1.000000" stroke="none" 
	d="
M140.171539,65.991882 
	C140.402802,65.943832 140.688477,66.177299 141.037720,66.686859 
	C140.809509,66.733109 140.517731,66.503258 140.171539,65.991882 
z"/>
<path fill="#DE564D" opacity="1.000000" stroke="none" 
	d="
M34.018517,122.989906 
	C34.018517,122.989906 33.996807,122.494408 33.984184,122.246704 
	C33.348221,119.576027 32.724876,117.153053 32.072189,114.351692 
	C33.283699,113.386917 35.240456,113.112785 35.653683,112.165405 
	C39.419285,103.532112 42.916054,94.781570 46.756199,85.419685 
	C45.136574,85.280212 43.462029,85.136009 41.365715,84.974503 
	C43.581295,82.790855 46.092361,80.439232 48.901314,78.524658 
	C50.711300,77.290993 51.933815,77.927643 51.189774,81.079018 
	C51.079056,82.491798 50.966026,83.228134 50.615150,84.193802 
	C50.275566,85.283966 50.173824,86.144806 49.967983,87.338974 
	C49.580467,88.797157 49.297054,89.921989 48.736317,91.265884 
	C48.304092,92.656082 48.149185,93.827240 47.635296,95.059158 
	C45.039650,100.360703 42.768032,105.587242 40.617039,110.862961 
	C40.386166,111.429214 40.857357,112.281715 41.001686,113.375702 
	C40.997986,114.498543 40.995480,115.247108 40.617561,116.002487 
	C39.140450,116.935890 37.908207,117.748169 36.970821,118.818642 
	C35.854588,120.093361 34.991360,121.589630 34.018517,122.989906 
z"/>
<path fill="#DE564D" opacity="1.000000" stroke="none" 
	d="
M40.173283,85.876816 
	C40.113899,85.683952 40.293804,85.395134 40.722080,85.022949 
	C40.784492,85.220009 40.598534,85.500435 40.173283,85.876816 
z"/>
<path fill="#DE564D" opacity="1.000000" stroke="none" 
	d="
M39.191139,86.881851 
	C39.129772,86.691505 39.304020,86.399323 39.725418,86.020706 
	C39.790630,86.216171 39.608692,86.498093 39.191139,86.881851 
z"/>
<path fill="#DE564D" opacity="1.000000" stroke="none" 
	d="
M38.219193,87.893814 
	C38.160412,87.712570 38.328938,87.423386 38.740253,87.044708 
	C38.804195,87.232101 38.625347,87.508987 38.219193,87.893814 
z"/>
<path fill="#FDFDFE" opacity="1.000000" stroke="none" 
	d="
M50.852997,83.964462 
	C50.966026,83.228134 51.079056,82.491798 51.304703,81.399338 
	C52.603886,79.432480 53.790455,77.821754 54.979309,76.207916 
	C53.777508,75.614822 52.900082,75.181801 52.027576,74.471855 
	C53.181320,73.602524 54.330147,73.010124 55.739262,72.227180 
	C59.281895,71.270905 62.564236,70.505180 66.206413,69.570335 
	C68.437691,69.302917 70.309143,69.204613 72.590195,69.033310 
	C75.370262,69.010017 77.740730,69.059731 80.984024,69.106049 
	C83.899300,69.056374 85.941734,69.010086 87.984177,68.963791 
	C88.154694,68.997444 88.325203,69.031082 88.748169,68.999809 
	C91.045311,68.990639 93.089981,69.046371 95.565918,69.020576 
	C97.715782,68.997253 99.434372,69.055458 101.999107,69.108353 
	C104.562645,69.049423 106.280045,68.995804 108.395096,69.024261 
	C109.869400,69.049416 110.946045,68.992485 112.022690,68.935555 
	C118.780281,69.110153 125.549416,69.105606 132.290298,69.539711 
	C135.368591,69.737953 138.391174,70.801155 141.730988,71.737213 
	C143.600876,72.588379 145.178833,73.174400 147.171631,73.663788 
	C147.586487,73.567162 147.644226,73.618301 147.471420,73.965309 
	C147.867004,74.872047 148.435410,75.431778 149.003799,75.991501 
	C149.003799,75.991501 149.166779,76.284889 149.190155,76.734772 
	C149.450882,77.463219 149.688232,77.741783 150.128998,78.149506 
	C150.332428,78.278656 150.814331,78.283463 150.814331,78.283463 
	C150.814331,78.283463 150.704880,78.370781 150.678375,78.438492 
	C150.804443,79.233650 150.956985,79.961105 151.324265,81.289536 
	C151.741180,82.594070 151.943375,83.297630 152.145569,84.001190 
	C152.230392,84.852669 152.315216,85.704147 152.607971,86.803276 
	C152.883606,88.434097 152.951294,89.817268 153.100739,91.608803 
	C153.174698,93.086525 153.166916,94.155891 153.251343,95.617126 
	C153.296646,97.077629 153.249741,98.146263 153.292267,99.607925 
	C153.314026,101.396828 153.246368,102.792702 153.261078,104.601807 
	C153.265533,106.076080 153.187607,107.137115 153.081009,108.985855 
	C153.056946,110.839279 153.061554,111.904984 153.066147,112.970695 
	C152.701508,114.737976 152.336868,116.505264 151.993683,118.662766 
	C151.310440,121.089066 150.605728,123.125137 149.892761,125.532310 
	C149.884476,125.903412 149.917068,125.932274 149.652130,126.107697 
	C149.131454,127.112831 148.875702,127.942543 148.619965,128.772247 
	C148.619965,128.772247 148.562363,128.738922 148.529846,128.730209 
	C148.497345,128.721497 148.192307,128.803909 148.060944,128.891846 
	C144.083511,129.755295 140.237457,130.530807 136.194153,131.621002 
	C135.611877,132.020554 135.226883,132.105438 134.546143,132.178558 
	C123.052742,132.192642 111.855064,132.218491 99.940941,132.533264 
	C98.481071,132.901550 97.737656,132.980927 96.599983,132.975388 
	C95.135628,132.947662 94.065536,133.004852 92.995438,133.062042 
	C92.826424,133.017502 92.657417,132.972977 92.232597,132.987198 
	C89.609749,132.993332 87.242699,132.940720 84.436600,132.964417 
	C80.635674,132.995850 77.273819,132.950974 73.458786,132.976044 
	C70.281456,132.690414 67.557289,132.334839 64.419464,132.000000 
	C62.937717,131.605240 61.869633,131.189728 60.465248,130.690826 
	C58.611443,129.467682 57.093937,128.327942 55.207428,126.845520 
	C54.678753,126.231079 54.444077,126.065742 54.073086,125.765045 
	C53.888180,125.184982 53.654213,124.963188 53.125771,124.531296 
	C52.306015,122.711479 51.236557,121.255196 51.105522,119.718872 
	C50.291210,110.171501 49.687328,100.606194 49.013638,91.046829 
	C49.297054,89.921989 49.580467,88.797157 50.290161,87.281754 
	C50.761959,85.915619 50.807476,84.940041 50.852997,83.964462 
z"/>
<path fill="#2970DB" opacity="1.000000" stroke="none" 
	d="
M112.130554,68.723312 
	C110.946045,68.992485 109.869400,69.049416 108.396309,68.587112 
	C108.005402,62.721420 108.010941,57.374950 108.016479,52.028477 
	C109.726898,52.019192 111.437309,52.009907 113.575356,52.007324 
	C113.704033,57.069279 113.405083,62.124535 113.060822,67.579117 
	C112.701149,68.075294 112.442116,68.252838 112.130554,68.723312 
z"/>
<path fill="#3277D4" opacity="1.000000" stroke="none" 
	d="
M107.594017,52.019600 
	C108.010941,57.374950 108.005402,62.721420 107.998650,68.505043 
	C106.280045,68.995804 104.562645,69.049423 102.421387,69.023590 
	C102.328293,64.491142 102.909355,60.038044 102.907318,55.585213 
	C102.905807,52.271088 104.529366,51.741852 107.594017,52.019600 
z"/>
<path fill="#9BC97D" opacity="1.000000" stroke="none" 
	d="
M36.087807,72.516151 
	C36.755379,71.313087 37.382317,70.507263 38.040466,69.354538 
	C43.989395,70.153168 42.582844,74.693649 42.804588,78.840508 
	C41.858456,80.264900 40.630348,81.458878 39.110249,82.801895 
	C34.785057,83.212135 32.978909,82.010269 35.046696,77.720436 
	C35.736317,76.289749 35.733467,74.525284 36.087807,72.516151 
z"/>
<path fill="#5A96B1" opacity="1.000000" stroke="none" 
	d="
M87.726212,68.690186 
	C85.941734,69.010086 83.899300,69.056374 81.422813,69.032944 
	C77.727081,67.998810 76.415535,65.909851 76.956078,62.488426 
	C77.210434,60.878506 77.407471,59.056175 76.913620,57.567978 
	C75.143967,52.235222 77.988129,51.597614 82.550385,52.065559 
	C82.895416,54.916367 82.765091,57.731812 82.774788,60.546776 
	C82.782433,62.763550 82.962685,64.979729 83.075554,67.394783 
	C84.697281,67.772026 86.082764,68.094307 87.726212,68.690186 
z"/>
<path fill="#B46065" opacity="1.000000" stroke="none" 
	d="
M48.736317,91.265884 
	C49.687328,100.606194 50.291210,110.171501 51.105522,119.718872 
	C51.236557,121.255196 52.306015,122.711479 52.909798,124.661186 
	C53.296745,125.414032 53.715572,125.710449 54.134396,126.006866 
	C54.444077,126.065742 54.678753,126.231079 54.912937,126.709808 
	C54.983376,127.094208 54.979294,127.271652 54.966183,127.715012 
	C52.973083,130.830231 50.876469,133.610641 49.066818,136.566711 
	C48.444527,137.583252 48.538746,139.038406 47.904541,140.648865 
	C47.503433,141.004547 47.007645,141.010376 47.007645,141.010376 
	C46.116425,140.508926 45.225201,140.007492 44.166176,139.250336 
	C44.850689,136.306915 46.370663,133.627396 46.403755,130.929626 
	C46.457623,126.538246 51.684822,123.154236 48.325333,117.703888 
	C48.002048,113.046989 47.997917,109.022118 47.998501,104.543411 
	C48.000237,101.059174 47.997257,98.028778 47.994278,94.998390 
	C48.149185,93.827240 48.304092,92.656082 48.736317,91.265884 
z"/>
<path fill="#CC5754" opacity="1.000000" stroke="none" 
	d="
M47.993790,104.997253 
	C47.997917,109.022118 48.002048,113.046989 48.010300,117.534760 
	C45.244137,120.976837 42.473846,123.956009 39.353321,126.566223 
	C39.666378,122.796738 40.329674,119.396202 40.992973,115.995667 
	C40.995480,115.247108 40.997986,114.498543 41.360107,113.334152 
	C42.619034,111.685303 43.478119,110.420258 44.428001,109.227516 
	C45.576443,107.785454 46.801750,106.404602 47.993790,104.997253 
z"/>
<path fill="#D7544F" opacity="1.000000" stroke="none" 
	d="
M40.617561,116.002487 
	C40.329674,119.396202 39.666378,122.796738 39.005798,126.603745 
	C39.007378,127.451805 39.006245,127.893394 38.784508,128.772964 
	C38.288639,129.408203 38.100750,129.668533 38.000248,129.991943 
	C37.590523,129.974060 37.180801,129.956161 36.469681,129.886688 
	C35.639896,128.031219 35.111507,126.227348 34.312641,124.198120 
	C34.042164,123.972778 34.020420,123.481728 34.019470,123.235817 
	C34.991360,121.589630 35.854588,120.093361 36.970821,118.818642 
	C37.908207,117.748169 39.140450,116.935890 40.617561,116.002487 
z"/>
<path fill="#CC5754" opacity="1.000000" stroke="none" 
	d="
M38.036140,130.333618 
	C38.100750,129.668533 38.288639,129.408203 38.783821,129.104248 
	C39.644447,129.730179 40.375484,130.409927 40.858418,131.234909 
	C40.970409,131.426224 40.235981,132.113022 39.891029,132.571823 
	C39.284695,131.939651 38.678364,131.307480 38.036140,130.333618 
z"/>
<path fill="#3C60C4" opacity="1.000000" stroke="none" 
	d="
M96.994240,133.060303 
	C97.737656,132.980927 98.481071,132.901550 99.595306,132.762802 
	C104.181549,132.873077 108.396973,133.042725 112.875679,133.554718 
	C112.951950,133.924942 112.764954,133.952835 111.895294,133.994080 
	C110.146797,134.012009 109.080963,134.016556 108.015129,134.021103 
	C106.038277,134.021103 104.061424,134.021103 101.416382,134.021103 
	C99.944199,139.059753 98.470200,144.104584 96.995331,149.578094 
	C95.284035,150.002792 93.573616,149.998825 91.438927,149.608490 
	C93.007851,143.834854 95.001045,138.447586 96.994240,133.060303 
z"/>
<path fill="#245EDD" opacity="1.000000" stroke="none" 
	d="
M107.966576,134.385162 
	C109.080963,134.016556 110.146797,134.012009 111.612846,134.019714 
	C110.344025,139.083221 108.674988,144.134460 107.012070,149.578766 
	C105.249763,149.971848 103.481346,149.971848 100.954178,149.971848 
	C103.474884,144.461700 105.696449,139.605453 107.966576,134.385162 
z"/>
<path fill="#4271BC" opacity="1.000000" stroke="none" 
	d="
M169.985611,111.625275 
	C164.935532,113.339226 159.879974,114.671196 154.418457,116.005798 
	C158.174408,112.003342 163.201340,109.874733 168.894714,109.332214 
	C169.193115,109.303787 169.615479,110.576378 169.985611,111.625275 
z"/>
<path fill="#63829D" opacity="1.000000" stroke="none" 
	d="
M153.325211,112.733673 
	C153.061554,111.904984 153.056946,110.839279 153.139954,109.382233 
	C153.227570,108.990891 153.620575,108.994194 153.817215,108.998367 
	C153.870651,110.167252 153.727463,111.331947 153.325211,112.733673 
z"/>
<path fill="#5764AB" opacity="1.000000" stroke="none" 
	d="
M88.631821,134.008896 
	C86.887901,138.572525 84.771523,143.138351 82.320114,147.852081 
	C80.194626,142.890671 83.225845,136.132385 88.631821,134.008896 
z"/>
<path fill="#E9F1E8" opacity="1.000000" stroke="none" 
	d="
M149.010773,75.692589 
	C148.435410,75.431778 147.867004,74.872047 147.485565,74.001183 
	C148.120941,74.257919 148.569351,74.825798 149.010773,75.692589 
z"/>
<path fill="#E9F1E8" opacity="1.000000" stroke="none" 
	d="
M149.925568,78.020348 
	C149.688232,77.741783 149.450882,77.463219 149.205139,76.901909 
	C149.196747,76.619164 149.663239,76.790009 149.851608,77.149872 
	C150.001846,77.679932 149.963699,77.850136 149.925568,78.020348 
z"/>
<path fill="#9B9E68" opacity="1.000000" stroke="none" 
	d="
M150.128998,78.149506 
	C149.963699,77.850136 150.001846,77.679932 150.078491,77.251007 
	C150.341873,77.246628 150.566742,77.500984 150.802979,78.019402 
	C150.814331,78.283463 150.332428,78.278656 150.128998,78.149506 
z"/>
<path fill="#306ACF" opacity="1.000000" stroke="none" 
	d="
M168.161346,120.657394 
	C162.746353,122.089935 157.400787,122.973457 152.352966,125.951469 
	C152.877289,121.919197 155.040390,119.256767 159.450348,118.660233 
	C161.183090,118.425858 162.803085,117.450371 164.526443,117.021347 
	C165.658127,116.739616 167.342834,116.336792 167.940613,116.891930 
	C168.576889,117.482834 168.223618,119.139305 168.161346,120.657394 
z"/>
<path fill="#4662BB" opacity="1.000000" stroke="none" 
	d="
M96.599983,132.975403 
	C95.001045,138.447586 93.007851,143.834854 91.011307,149.606537 
	C89.804115,149.847656 88.600281,149.704376 87.025566,149.516953 
	C89.135559,143.960571 91.061043,138.890060 92.990982,133.440781 
	C94.065536,133.004852 95.135628,132.947662 96.599983,132.975403 
z"/>
<path fill="#CDBB4C" opacity="1.000000" stroke="none" 
	d="
M140.878326,61.818089 
	C140.701538,61.865372 140.427582,61.679546 140.059479,61.258251 
	C140.237274,61.210182 140.509232,61.397583 140.878326,61.818089 
z"/>
<path fill="#CDBB4C" opacity="1.000000" stroke="none" 
	d="
M141.869049,62.901634 
	C141.677353,62.944283 141.403397,62.732742 141.039185,62.272392 
	C141.228210,62.231537 141.507477,62.439491 141.869049,62.901634 
z"/>
<path fill="#929A6F" opacity="1.000000" stroke="none" 
	d="
M152.503281,84.047272 
	C151.943375,83.297630 151.741180,82.594070 151.473236,81.529892 
	C153.776382,80.928871 156.145294,80.688454 158.758881,80.728821 
	C158.727890,85.566887 155.986954,85.213577 152.503281,84.047272 
z"/>
<path fill="#9F6574" opacity="1.000000" stroke="none" 
	d="
M47.007950,141.333862 
	C47.007645,141.010376 47.503433,141.004547 47.751335,141.003357 
	C47.838074,141.546021 47.676907,142.089890 47.274101,142.791901 
	C47.024391,142.519150 47.016323,142.088257 47.007950,141.333862 
z"/>
<path fill="#BDB258" opacity="1.000000" stroke="none" 
	d="
M144.936539,66.729523 
	C144.566345,66.607208 144.178619,66.146179 143.672485,65.396317 
	C144.009064,65.535263 144.464020,65.963036 144.936539,66.729523 
z"/>
<path fill="#3E71C4" opacity="1.000000" stroke="none" 
	d="
M148.967651,128.678604 
	C148.875702,127.942543 149.131454,127.112831 149.651886,126.089050 
	C149.716187,126.791626 149.515778,127.688293 148.967651,128.678604 
z"/>
<path fill="#D7544F" opacity="1.000000" stroke="none" 
	d="
M47.998505,104.543411 
	C46.801750,106.404602 45.576443,107.785454 44.428001,109.227516 
	C43.478119,110.420258 42.619034,111.685303 41.361298,112.959869 
	C40.857357,112.281715 40.386166,111.429214 40.617039,110.862961 
	C42.768032,105.587242 45.039650,100.360703 47.635292,95.059158 
	C47.997257,98.028778 48.000237,101.059174 47.998505,104.543411 
z"/>
<path fill="#F8EDDA" opacity="1.000000" stroke="none" 
	d="
M50.615150,84.193802 
	C50.807476,84.940041 50.761959,85.915619 50.394264,86.948418 
	C50.173824,86.144806 50.275566,85.283966 50.615150,84.193802 
z"/>
<path fill="#9F6574" opacity="1.000000" stroke="none" 
	d="
M54.073086,125.765045 
	C53.715572,125.710449 53.296745,125.414032 53.093899,124.987732 
	C53.654213,124.963188 53.888180,125.184982 54.073086,125.765045 
z"/>
</svg>
