<svg version="1.1" id="Layer_1" xmlns="http://www.w3.org/2000/svg" xmlns:xlink="http://www.w3.org/1999/xlink" x="0px" y="0px"
	 width="100%" viewBox="0 0 200 200" enable-background="new 0 0 200 200" xml:space="preserve">
<path fill="#FEFEFE" opacity="1.000000" stroke="none" 
	d="
M97.000000,201.000000 
	C64.666672,201.000000 32.833336,201.000000 1.000004,201.000000 
	C1.000003,134.333344 1.000003,67.666679 1.000001,1.000013 
	C67.666656,1.000009 134.333313,1.000009 200.999969,1.000004 
	C200.999985,67.666649 200.999985,134.333298 201.000000,200.999969 
	C166.500000,201.000000 132.000000,201.000000 97.000000,201.000000 
M127.178947,62.664871 
	C126.486397,61.483345 125.835999,59.307713 125.094696,59.276283 
	C118.697990,59.005081 112.284904,59.120285 105.852486,59.120285 
	C105.852486,87.305931 105.852486,114.841652 105.852486,142.302643 
	C124.720924,142.302643 143.248657,142.302643 161.601105,142.302643 
	C161.601105,137.343597 161.601105,132.778961 161.601105,127.830803 
	C149.984970,127.830803 138.746872,127.830803 127.180229,127.830803 
	C127.180229,106.165192 127.180229,84.899086 127.178947,62.664871 
M90.909653,72.528732 
	C92.992409,68.250000 95.075172,63.971260 97.437737,59.117699 
	C93.105606,59.117699 89.479416,59.331295 85.891068,59.054474 
	C82.643021,58.803905 80.968208,59.891911 79.483833,62.929478 
	C69.862625,82.617943 59.975708,102.176491 50.188293,121.783821 
	C46.809563,128.552505 43.466373,135.338913 39.816818,142.702637 
	C43.903435,142.702637 47.222122,142.414078 50.467926,142.777115 
	C54.353867,143.211731 56.310158,141.768311 58.042854,138.239029 
	C68.726074,116.478752 79.685585,94.854118 90.909653,72.528732 
z"/>
<path fill="#040404" opacity="1.000000" stroke="none" 
	d="
M127.179588,63.148926 
	C127.180229,84.899086 127.180229,106.165192 127.180229,127.830803 
	C138.746872,127.830803 149.984970,127.830803 161.601105,127.830803 
	C161.601105,132.778961 161.601105,137.343597 161.601105,142.302643 
	C143.248657,142.302643 124.720924,142.302643 105.852486,142.302643 
	C105.852486,114.841652 105.852486,87.305931 105.852486,59.120285 
	C112.284904,59.120285 118.697990,59.005081 125.094696,59.276283 
	C125.835999,59.307713 126.486397,61.483345 127.179588,63.148926 
z"/>
<path fill="#070707" opacity="1.000000" stroke="none" 
	d="
M90.731445,72.856552 
	C79.685585,94.854118 68.726074,116.478752 58.042854,138.239029 
	C56.310158,141.768311 54.353867,143.211731 50.467926,142.777115 
	C47.222122,142.414078 43.903435,142.702637 39.816818,142.702637 
	C43.466373,135.338913 46.809563,128.552505 50.188293,121.783821 
	C59.975708,102.176491 69.862625,82.617943 79.483833,62.929478 
	C80.968208,59.891911 82.643021,58.803905 85.891068,59.054474 
	C89.479416,59.331295 93.105606,59.117699 97.437737,59.117699 
	C95.075172,63.971260 92.992409,68.250000 90.731445,72.856552 
z"/>
</svg>
