<svg version="1.1" id="Layer_1" xmlns="http://www.w3.org/2000/svg" xmlns:xlink="http://www.w3.org/1999/xlink" x="0px" y="0px"
	 width="100%" viewBox="0 0 200 200" enable-background="new 0 0 200 200" xml:space="preserve">
<path fill="#1595DF" opacity="1.000000" stroke="none" 
	d="
M156.000000,201.000000 
	C146.979111,201.000000 137.958206,201.000000 128.468658,200.547882 
	C128.267517,196.801315 127.903069,193.295303 128.921906,190.252441 
	C131.889511,181.389496 136.676819,173.060699 136.167847,163.258270 
	C136.136154,162.647812 136.373306,161.766205 136.809052,161.429016 
	C140.548935,158.535156 139.984314,154.450073 140.067764,150.489105 
	C140.095093,149.191925 140.135468,147.506683 140.903305,146.680786 
	C144.194473,143.140732 144.113586,138.906830 144.072006,134.565292 
	C144.059692,133.280228 144.455032,131.948074 144.875763,130.709579 
	C146.604111,125.621902 148.231400,120.488426 150.235855,115.508644 
	C153.483795,107.439568 148.286194,95.777222 160.414078,92.156151 
	C159.546982,85.650215 158.770187,79.821877 157.996704,73.627502 
	C158.025726,72.531647 158.051468,71.801819 158.382660,71.019722 
	C160.919540,70.239334 161.156372,69.220100 158.996689,67.612823 
	C158.234589,66.896957 157.615707,66.440231 156.897064,65.629066 
	C153.929214,61.305046 155.567444,57.290241 156.887070,53.415707 
	C159.501923,45.738316 158.284134,36.321556 166.827515,31.242010 
	C167.483261,30.852139 167.781235,29.494942 167.859070,28.555355 
	C168.619736,19.374134 169.298172,10.186098 170.000000,1.000000 
	C180.275024,1.000000 190.550049,1.000000 201.000000,1.000000 
	C201.000000,16.353785 201.000000,31.708235 200.627655,47.566132 
	C198.521744,49.777752 196.009232,51.186893 195.215012,53.255688 
	C193.505875,57.707714 192.666794,62.495659 191.498322,67.152817 
	C190.330536,71.807182 189.092682,76.447388 188.072952,81.134567 
	C186.913361,86.464668 186.348083,91.951721 184.838928,97.172379 
	C181.656799,108.180405 176.890900,118.640312 175.222946,130.206253 
	C174.033813,138.452103 169.479004,146.291245 168.784134,154.511200 
	C167.753647,166.701630 158.958099,176.597641 159.774826,189.072083 
	C159.823288,189.812225 159.145218,190.578491 158.903366,191.362854 
	C157.914841,194.568832 156.964432,197.786591 156.000000,201.000000 
z"/>
<path fill="#137DDE" opacity="1.000000" stroke="none" 
	d="
M35.000000,1.000000 
	C45.354229,1.000000 55.708454,1.000000 66.531433,1.465387 
	C66.195389,9.480170 66.177887,17.225988 64.357582,24.522022 
	C62.642738,31.395369 58.267326,37.327076 58.671703,45.155338 
	C58.958801,50.713291 56.806156,56.414410 55.586575,62.017700 
	C55.359325,63.061771 54.611694,64.378448 53.727737,64.826431 
	C50.048786,66.690887 50.191147,69.905525 49.878094,73.316948 
	C49.620804,76.120720 49.129822,79.934456 47.264816,81.340149 
	C43.613911,84.091904 42.904140,87.222786 42.946613,91.248917 
	C42.977985,94.223007 42.171734,97.222435 42.346714,100.174538 
	C42.594807,104.360031 43.429501,108.508949 43.951473,112.681267 
	C44.082775,113.730827 43.977905,114.809944 43.981571,115.875473 
	C42.907948,115.830887 41.678776,116.112762 40.786488,115.687607 
	C35.805565,113.314270 35.441654,113.385551 35.553368,118.919876 
	C35.593613,120.913559 37.018681,122.847664 37.288177,124.878448 
	C37.499378,126.469917 37.467411,129.120010 36.567822,129.652985 
	C32.884502,131.835190 32.582066,134.289383 34.138058,138.000671 
	C36.011353,142.468781 34.452480,144.788544 29.894732,146.596832 
	C28.685961,147.076401 27.494610,148.938248 27.268801,150.324051 
	C26.317614,156.161545 25.487057,162.042709 25.098219,167.939926 
	C24.805515,172.379150 24.360611,176.369690 20.780418,179.699554 
	C19.469858,180.918457 19.268951,183.610596 19.062105,185.680649 
	C18.553394,190.771637 18.335094,195.891663 18.000000,201.000000 
	C12.361655,201.000000 6.723310,201.000000 1.000000,201.000000 
	C1.000000,177.645828 1.000000,154.291580 1.402709,130.465179 
	C8.350772,129.348282 10.068561,127.759880 9.943157,121.260941 
	C9.717915,109.587921 10.127544,98.052795 13.897433,86.828979 
	C15.923427,80.797142 17.482737,74.609444 19.330898,68.515808 
	C19.551548,67.788300 20.151669,66.797493 20.768492,66.627480 
	C26.471046,65.055664 25.704027,60.482761 26.064930,56.156490 
	C26.754213,47.893856 24.044102,38.804657 31.482157,32.025257 
	C31.789413,31.745209 31.818287,31.096991 31.870342,30.608938 
	C32.922924,20.740292 33.959896,10.869979 35.000000,1.000000 
z"/>
<path fill="#1582DD" opacity="1.000000" stroke="none" 
	d="
M18.468649,201.000000 
	C18.335094,195.891663 18.553394,190.771637 19.062105,185.680649 
	C19.268951,183.610596 19.469858,180.918457 20.780418,179.699554 
	C24.360611,176.369690 24.805515,172.379150 25.098219,167.939926 
	C25.487057,162.042709 26.317614,156.161545 27.268801,150.324051 
	C27.494610,148.938248 28.685961,147.076401 29.894732,146.596832 
	C34.452480,144.788544 36.011353,142.468781 34.138058,138.000671 
	C32.582066,134.289383 32.884502,131.835190 36.567822,129.652985 
	C37.467411,129.120010 37.499378,126.469917 37.288177,124.878448 
	C37.018681,122.847664 35.593613,120.913559 35.553368,118.919876 
	C35.441654,113.385551 35.805565,113.314270 40.786488,115.687607 
	C41.678776,116.112762 42.907948,115.830887 43.981571,115.875473 
	C43.977905,114.809944 44.082775,113.730827 43.951473,112.681267 
	C43.429501,108.508949 42.594807,104.360031 42.346714,100.174538 
	C42.171734,97.222435 42.977985,94.223007 42.946613,91.248917 
	C42.904140,87.222786 43.613911,84.091904 47.264816,81.340149 
	C49.129822,79.934456 49.620804,76.120720 49.878094,73.316948 
	C50.191147,69.905525 50.048786,66.690887 53.727737,64.826431 
	C54.611694,64.378448 55.359325,63.061771 55.586575,62.017700 
	C56.806156,56.414410 58.958801,50.713291 58.671703,45.155338 
	C58.267326,37.327076 62.642738,31.395369 64.357582,24.522022 
	C66.177887,17.225988 66.195389,9.480170 67.000092,1.465387 
	C76.020897,1.000000 85.041786,1.000000 94.531342,1.464229 
	C94.989418,5.085780 95.238892,8.274786 94.859695,11.387197 
	C94.667053,12.968349 93.707581,15.177745 92.460129,15.772879 
	C88.774147,17.531391 88.181831,20.513107 88.006241,23.971746 
	C87.695251,30.097279 87.454575,36.232140 86.882584,42.334805 
	C86.730515,43.957413 85.888596,46.248775 84.657745,46.900642 
	C80.819023,48.933640 79.755814,51.897106 79.909485,55.924839 
	C79.976013,57.668545 79.025757,59.427143 78.836769,61.210709 
	C78.614243,63.310822 78.162979,65.636154 78.811996,67.518700 
	C79.708771,70.119896 78.962395,71.230186 77.008217,72.882729 
	C74.070129,75.367325 71.690613,78.512436 69.073608,81.376724 
	C69.616371,81.921074 70.159126,82.465424 70.701881,83.009773 
	C75.411095,81.252541 78.960876,77.300133 81.210403,73.260490 
	C83.304497,69.499947 85.538063,68.764122 88.898125,69.390060 
	C87.135757,71.108849 85.213181,72.307045 84.022011,74.015266 
	C71.450150,92.044304 58.989281,110.150780 46.515629,128.248184 
	C45.170219,130.200180 43.937309,132.229706 42.227718,134.881775 
	C45.989712,134.881775 48.664665,134.670273 51.295654,134.920654 
	C59.849529,135.734787 67.791206,135.356842 72.057053,126.093941 
	C75.089912,128.752289 72.562553,129.740784 70.776276,131.246780 
	C69.040009,133.338089 67.670914,135.326950 65.980927,136.989639 
	C63.818249,139.117386 64.475624,140.219879 66.924759,141.371140 
	C65.700203,142.483261 64.522827,143.898193 63.408596,143.850082 
	C58.536041,143.639786 58.781536,146.003601 58.631996,150.024704 
	C58.320488,158.401337 56.688431,166.730453 55.540947,175.071106 
	C55.457825,175.675293 55.039719,176.401108 54.549641,176.755280 
	C50.332417,179.803146 50.866405,184.559372 49.912403,188.850540 
	C49.457561,190.896439 48.456345,193.777008 46.918304,194.428833 
	C43.618397,195.827332 42.777439,197.897812 43.000000,201.000000 
	C34.979099,201.000000 26.958199,201.000000 18.468649,201.000000 
M67.485291,69.594826 
	C68.108788,73.087067 70.034943,71.419136 71.038910,70.178139 
	C71.876465,69.142853 71.850792,67.409203 72.207428,65.984848 
	C70.999023,66.403168 69.730995,66.707481 68.610344,67.293587 
	C68.134293,67.542572 67.967094,68.382095 67.485291,69.594826 
z"/>
<path fill="#159ADE" opacity="1.000000" stroke="none" 
	d="
M156.468658,201.000000 
	C156.964432,197.786591 157.914841,194.568832 158.903366,191.362854 
	C159.145218,190.578491 159.823288,189.812225 159.774826,189.072083 
	C158.958099,176.597641 167.753647,166.701630 168.784134,154.511200 
	C169.479004,146.291245 174.033813,138.452103 175.222946,130.206253 
	C176.890900,118.640312 181.656799,108.180405 184.838928,97.172379 
	C186.348083,91.951721 186.913361,86.464668 188.072952,81.134567 
	C189.092682,76.447388 190.330536,71.807182 191.498322,67.152817 
	C192.666794,62.495659 193.505875,57.707714 195.215012,53.255688 
	C196.009232,51.186893 198.521744,49.777752 200.627655,48.034790 
	C201.000000,98.887077 201.000000,149.774155 201.000000,201.000000 
	C186.314178,201.000000 171.625748,201.000000 156.468658,201.000000 
z"/>
<path fill="#1378DE" opacity="1.000000" stroke="none" 
	d="
M34.531342,1.000000 
	C33.959896,10.869979 32.922924,20.740292 31.870342,30.608938 
	C31.818287,31.096991 31.789413,31.745209 31.482157,32.025257 
	C24.044102,38.804657 26.754213,47.893856 26.064930,56.156490 
	C25.704027,60.482761 26.471046,65.055664 20.768492,66.627480 
	C20.151669,66.797493 19.551548,67.788300 19.330898,68.515808 
	C17.482737,74.609444 15.923427,80.797142 13.897433,86.828979 
	C10.127544,98.052795 9.717915,109.587921 9.943157,121.260941 
	C10.068561,127.759880 8.350772,129.348282 1.402709,129.996521 
	C1.000000,87.115707 1.000000,44.231407 1.000000,1.000000 
	C12.018465,1.000000 23.040573,1.000000 34.531342,1.000000 
z"/>
<path fill="#1590DD" opacity="1.000000" stroke="none" 
	d="
M157.993408,73.993546 
	C158.770187,79.821877 159.546982,85.650215 160.414078,92.156151 
	C148.286194,95.777222 153.483795,107.439568 150.235855,115.508644 
	C148.231400,120.488426 146.604111,125.621902 144.875763,130.709579 
	C144.455032,131.948074 144.059692,133.280228 144.072006,134.565292 
	C144.113586,138.906830 144.194473,143.140732 140.903305,146.680786 
	C140.135468,147.506683 140.095093,149.191925 140.067764,150.489105 
	C139.984314,154.450073 140.548935,158.535156 136.809052,161.429016 
	C136.373306,161.766205 136.136154,162.647812 136.167847,163.258270 
	C136.676819,173.060699 131.889511,181.389496 128.921906,190.252441 
	C127.903069,193.295303 128.267517,196.801315 128.000000,200.547882 
	C120.645744,201.000000 113.291496,201.000000 105.468666,200.559433 
	C105.721603,193.712097 106.339668,187.290543 107.251213,180.910934 
	C107.435257,179.622894 108.472443,177.843658 109.561218,177.411331 
	C113.023262,176.036575 112.915955,173.339737 113.041183,170.437866 
	C113.161110,167.658691 112.596779,163.677429 114.150299,162.348160 
	C119.207726,158.020782 118.132912,152.854721 117.600037,147.633713 
	C117.100784,142.742126 118.701546,140.965286 123.685402,141.202087 
	C125.164543,141.272369 126.659416,141.011398 128.147079,140.902222 
	C128.229858,140.384674 128.312622,139.867142 128.395401,139.349594 
	C122.209923,140.332611 119.876648,136.452286 117.987122,131.597046 
	C117.917015,130.392242 117.856827,129.589645 117.816971,128.829544 
	C117.837318,128.872055 117.752106,128.831787 118.077301,128.726013 
	C118.867569,127.662254 119.332649,126.704292 119.800262,125.786270 
	C119.802788,125.826218 119.722755,125.828140 120.022331,125.717850 
	C120.598007,124.893379 120.874100,124.179192 121.146233,123.344391 
	C121.142273,123.223778 121.363609,123.127525 121.699539,123.173782 
	C122.671715,122.442528 123.307976,121.665016 123.942795,120.524139 
	C126.656464,116.519188 129.432571,112.920715 132.053024,109.212250 
	C132.950974,107.941490 133.459167,106.395332 134.292053,104.793320 
	C134.622070,104.358398 134.783600,104.091888 134.939178,103.886597 
	C134.955109,103.961060 134.806046,103.992218 135.008759,103.786972 
	C135.451645,103.280861 135.691849,102.979996 135.893921,102.762230 
	C135.855789,102.845322 135.690582,102.766998 136.081268,102.779350 
	C142.224579,102.248634 142.209610,98.173813 141.947174,93.954460 
	C141.990448,93.987961 141.900696,93.916138 142.203384,93.798874 
	C142.981812,92.775040 143.457550,91.868462 143.951859,90.975060 
	C143.970444,90.988235 143.945465,90.964645 144.127716,90.778015 
	C144.522400,90.315201 144.734848,90.039024 144.911774,89.824989 
	C144.876251,89.887123 144.752838,89.814621 145.106873,89.761276 
	C146.597656,87.770729 147.734390,85.833527 148.916901,83.898209 
	C148.962677,83.900108 148.873413,83.871407 149.223343,83.809723 
	C152.904114,82.612915 154.196671,80.231163 153.834412,76.866325 
	C153.859528,76.910690 153.769882,76.959259 153.974777,76.747337 
	C154.428986,76.011749 154.678314,75.488083 154.935547,74.968544 
	C154.943451,74.972672 154.954437,74.966858 155.136612,74.789413 
	C155.536774,74.352325 155.754776,74.092674 155.939850,73.859718 
	C155.906937,73.886414 155.856964,73.817940 156.212173,73.857941 
	C157.042725,73.929810 157.518066,73.961678 157.993408,73.993546 
M156.272247,88.718346 
	C155.399933,88.509506 154.527634,88.300674 153.655319,88.091843 
	C153.651520,88.692657 153.647705,89.293472 153.643906,89.894287 
	C154.518066,89.693634 155.392212,89.492981 156.272247,88.718346 
z"/>
<path fill="#1588DD" opacity="1.000000" stroke="none" 
	d="
M43.468658,201.000000 
	C42.777439,197.897812 43.618397,195.827332 46.918304,194.428833 
	C48.456345,193.777008 49.457561,190.896439 49.912403,188.850540 
	C50.866405,184.559372 50.332417,179.803146 54.549641,176.755280 
	C55.039719,176.401108 55.457825,175.675293 55.540947,175.071106 
	C56.688431,166.730453 58.320488,158.401337 58.631996,150.024704 
	C58.781536,146.003601 58.536041,143.639786 63.408596,143.850082 
	C64.522827,143.898193 65.700203,142.483261 67.174759,141.246811 
	C67.999962,140.501099 68.498909,140.250244 69.307846,139.960510 
	C70.077950,138.947220 70.538071,137.972794 71.135193,136.668884 
	C71.181747,134.559372 71.091309,132.779388 71.000870,130.999390 
	C72.562553,129.740784 75.089912,128.752289 72.172409,125.769470 
	C78.010551,116.603180 83.996651,107.949570 89.982758,99.295959 
	C91.172577,105.400192 91.526405,111.155289 91.097092,116.851372 
	C90.267036,127.864304 97.784637,137.842514 111.504608,134.106323 
	C107.788406,134.749847 104.185898,135.191910 100.575294,135.272781 
	C98.517845,135.318863 95.930855,132.792969 94.973305,136.440567 
	C94.873978,136.818924 98.329460,138.181488 100.174988,138.998260 
	C101.120949,139.416901 102.154198,139.638290 103.148003,139.948822 
	C103.190529,140.424744 103.233047,140.900665 103.275574,141.376587 
	C101.200142,141.914047 99.096085,142.988464 97.055092,142.879669 
	C92.493591,142.636536 90.720551,144.954407 90.317017,148.973389 
	C90.118584,150.949661 89.949547,152.949738 90.029190,154.928497 
	C90.168655,158.393402 89.129250,160.882950 85.853867,162.685608 
	C84.476112,163.443878 83.283546,165.665131 83.130180,167.325119 
	C82.492226,174.230209 82.387566,181.183197 81.840385,188.099075 
	C81.705589,189.802765 80.638855,191.432037 80.004555,193.097061 
	C79.001266,195.730698 78.001350,198.365616 77.000000,201.000000 
	C65.979103,201.000000 54.958210,201.000000 43.468658,201.000000 
z"/>
<path fill="#158EDE" opacity="1.000000" stroke="none" 
	d="
M169.531342,1.000000 
	C169.298172,10.186098 168.619736,19.374134 167.859070,28.555355 
	C167.781235,29.494942 167.483261,30.852139 166.827515,31.242010 
	C158.284134,36.321556 159.501923,45.738316 156.887070,53.415707 
	C155.567444,57.290241 153.929214,61.305046 156.428864,65.633316 
	C149.729095,65.958336 143.382019,66.177406 137.073044,65.784683 
	C133.903610,65.587395 132.693314,66.490265 131.819366,69.473450 
	C131.211487,71.548393 129.574402,73.568398 127.875305,74.988708 
	C126.778336,75.905685 124.737953,75.694077 123.120361,75.988243 
	C123.480659,74.603714 123.806213,73.208878 124.212708,71.838043 
	C124.514763,70.819427 124.921776,69.831924 125.282036,68.830566 
	C124.110580,68.465347 122.959518,67.931992 121.761398,67.786713 
	C120.754478,67.664612 119.692757,67.994446 118.163712,68.185692 
	C118.577614,66.993446 118.632401,66.268494 119.013588,65.822495 
	C124.974884,58.847466 124.004272,49.376419 127.670471,41.470749 
	C129.262573,38.037601 127.999382,33.313881 132.347900,30.776606 
	C133.164886,30.299919 133.724182,28.824467 133.820389,27.757418 
	C134.624039,18.845232 135.291473,9.920763 136.000000,1.000000 
	C147.020889,1.000000 158.041794,1.000000 169.531342,1.000000 
z"/>
<path fill="#178ADE" opacity="1.000000" stroke="none" 
	d="
M135.531464,1.000000 
	C135.291473,9.920763 134.624039,18.845232 133.820389,27.757418 
	C133.724182,28.824467 133.164886,30.299919 132.347900,30.776606 
	C127.999382,33.313881 129.262573,38.037601 127.670471,41.470749 
	C124.004272,49.376419 124.974884,58.847466 119.013588,65.822495 
	C118.632401,66.268494 118.577614,66.993446 118.163712,68.185692 
	C119.692757,67.994446 120.754478,67.664612 121.761398,67.786713 
	C122.959518,67.931992 124.110580,68.465347 125.282036,68.830566 
	C124.921776,69.831924 124.514763,70.819427 124.212708,71.838043 
	C123.806213,73.208878 123.480659,74.603714 123.120361,75.988243 
	C124.737953,75.694077 126.778336,75.905685 127.875305,74.988708 
	C129.574402,73.568398 131.211487,71.548393 131.819366,69.473450 
	C132.693314,66.490265 133.903610,65.587395 137.073044,65.784683 
	C143.382019,66.177406 149.729095,65.958336 156.528625,65.987762 
	C157.615707,66.440231 158.234589,66.896957 158.973083,67.634323 
	C159.092712,67.914963 159.051147,67.963448 158.581116,67.912056 
	C152.128494,67.829430 146.127991,67.524689 140.173050,67.915039 
	C138.084061,68.051979 135.465195,69.401428 134.194214,71.049896 
	C129.634995,76.963264 125.545998,83.239410 121.285095,89.382477 
	C118.048698,94.048462 114.821236,98.720650 111.589790,103.390076 
	C110.479904,97.015549 110.287628,91.072289 110.534485,85.147331 
	C110.776840,79.330269 109.268211,74.343452 105.024666,69.979935 
	C104.711006,65.227592 102.126694,67.297012 99.772774,67.963928 
	C99.339439,67.946136 99.169418,67.897949 98.999680,67.543106 
	C98.999672,66.827728 98.999374,66.419006 99.228874,65.900696 
	C99.608757,65.372597 99.995834,64.679771 99.874733,64.575150 
	C95.239944,60.570930 97.585121,56.603439 99.835701,52.584705 
	C101.352974,49.875401 103.446640,47.251415 104.074013,44.329773 
	C105.457031,37.889072 106.019257,31.275415 107.038704,24.751446 
	C107.362511,22.679295 107.455704,20.099043 108.716797,18.729635 
	C113.413147,13.629895 115.422440,7.802184 115.000000,1.000000 
	C121.687645,1.000000 128.375290,1.000000 135.531464,1.000000 
z"/>
<path fill="#158CDE" opacity="1.000000" stroke="none" 
	d="
M77.468658,201.000000 
	C78.001350,198.365616 79.001266,195.730698 80.004555,193.097061 
	C80.638855,191.432037 81.705589,189.802765 81.840385,188.099075 
	C82.387566,181.183197 82.492226,174.230209 83.130180,167.325119 
	C83.283546,165.665131 84.476112,163.443878 85.853867,162.685608 
	C89.129250,160.882950 90.168655,158.393402 90.029190,154.928497 
	C89.949547,152.949738 90.118584,150.949661 90.317017,148.973389 
	C90.720551,144.954407 92.493591,142.636536 97.055092,142.879669 
	C99.096085,142.988464 101.200142,141.914047 103.275574,141.376587 
	C103.233047,140.900665 103.190529,140.424744 103.148003,139.948822 
	C102.154198,139.638290 101.120949,139.416901 100.174988,138.998260 
	C98.329460,138.181488 94.873978,136.818924 94.973305,136.440567 
	C95.930855,132.792969 98.517845,135.318863 100.575294,135.272781 
	C104.185898,135.191910 107.788406,134.749847 111.553482,134.121246 
	C111.712646,133.783432 111.685005,133.881866 111.911423,133.770233 
	C112.417587,133.474731 112.697334,133.290863 113.057205,132.979263 
	C113.137329,132.851517 113.438911,132.854294 113.831558,132.857727 
	C115.481812,132.573837 116.739418,132.286530 117.997025,131.999222 
	C119.876648,136.452286 122.209923,140.332611 128.395401,139.349594 
	C128.312622,139.867142 128.229858,140.384674 128.147079,140.902222 
	C126.659416,141.011398 125.164543,141.272369 123.685402,141.202087 
	C118.701546,140.965286 117.100784,142.742126 117.600037,147.633713 
	C118.132912,152.854721 119.207726,158.020782 114.150299,162.348160 
	C112.596779,163.677429 113.161110,167.658691 113.041183,170.437866 
	C112.915955,173.339737 113.023262,176.036575 109.561218,177.411331 
	C108.472443,177.843658 107.435257,179.622894 107.251213,180.910934 
	C106.339668,187.290543 105.721603,193.712097 105.000046,200.559433 
	C95.979103,201.000000 86.958214,201.000000 77.468658,201.000000 
z"/>
<path fill="#1485DE" opacity="1.000000" stroke="none" 
	d="
M114.531601,1.000000 
	C115.422440,7.802184 113.413147,13.629895 108.716797,18.729635 
	C107.455704,20.099043 107.362511,22.679295 107.038704,24.751446 
	C106.019257,31.275415 105.457031,37.889072 104.074013,44.329773 
	C103.446640,47.251415 101.352974,49.875401 99.835701,52.584705 
	C97.585121,56.603439 95.239944,60.570930 99.874733,64.575150 
	C99.995834,64.679771 99.608757,65.372597 98.790573,65.897324 
	C95.438942,66.702560 92.755417,67.401596 90.058624,68.068787 
	C90.045357,68.036949 90.111191,68.016327 89.916779,68.185066 
	C89.490387,68.606171 89.258400,68.858528 89.036438,69.080811 
	C89.046463,69.050728 89.077484,69.106270 89.077484,69.106270 
	C85.538063,68.764122 83.304497,69.499947 81.210403,73.260490 
	C78.960876,77.300133 75.411095,81.252541 70.701881,83.009773 
	C70.159126,82.465424 69.616371,81.921074 69.073608,81.376724 
	C71.690613,78.512436 74.070129,75.367325 77.008217,72.882729 
	C78.962395,71.230186 79.708771,70.119896 78.811996,67.518700 
	C78.162979,65.636154 78.614243,63.310822 78.836769,61.210709 
	C79.025757,59.427143 79.976013,57.668545 79.909485,55.924839 
	C79.755814,51.897106 80.819023,48.933640 84.657745,46.900642 
	C85.888596,46.248775 86.730515,43.957413 86.882584,42.334805 
	C87.454575,36.232140 87.695251,30.097279 88.006241,23.971746 
	C88.181831,20.513107 88.774147,17.531391 92.460129,15.772879 
	C93.707581,15.177745 94.667053,12.968349 94.859695,11.387197 
	C95.238892,8.274786 94.989418,5.085780 95.000000,1.464229 
	C101.354401,1.000000 107.708794,1.000000 114.531601,1.000000 
z"/>
<path fill="#178ADE" opacity="1.000000" stroke="none" 
	d="
M159.116318,67.893463 
	C161.156372,69.220100 160.919540,70.239334 158.326889,70.968002 
	C157.965668,70.968567 157.857010,70.865562 157.927765,70.556595 
	C158.349396,69.486237 158.700272,68.724846 159.051147,67.963448 
	C159.051147,67.963448 159.092712,67.914963 159.116318,67.893463 
z"/>
<path fill="#178ADE" opacity="1.000000" stroke="none" 
	d="
M157.996704,73.627502 
	C157.518066,73.961678 157.042725,73.929810 156.233124,73.544495 
	C156.551590,72.415878 157.204300,71.640717 157.857010,70.865562 
	C157.857010,70.865562 157.965668,70.968567 158.021439,71.020279 
	C158.051468,71.801819 158.025726,72.531647 157.996704,73.627502 
z"/>
<path fill="#F7FDFE" opacity="1.000000" stroke="none" 
	d="
M157.927765,70.556595 
	C157.204300,71.640717 156.551590,72.415878 155.877930,73.504486 
	C155.856964,73.817940 155.906937,73.886414 155.676727,73.945450 
	C155.282486,74.325272 155.118454,74.646065 154.954437,74.966858 
	C154.954437,74.966858 154.943451,74.972672 154.644196,75.084846 
	C154.153244,75.784431 153.961563,76.371849 153.769882,76.959259 
	C153.769882,76.959259 153.859528,76.910690 153.540497,77.028252 
	C151.772125,79.387680 150.322769,81.629547 148.873413,83.871414 
	C148.873413,83.871407 148.962677,83.900108 148.619614,84.053062 
	C147.101974,86.075546 145.927399,87.945084 144.752838,89.814621 
	C144.752838,89.814621 144.876251,89.887123 144.641510,89.919769 
	C144.253006,90.289825 144.099243,90.627235 143.945465,90.964645 
	C143.945465,90.964645 143.970444,90.988235 143.662857,91.110626 
	C142.870407,92.127380 142.385544,93.021759 141.900696,93.916138 
	C141.900696,93.916138 141.990448,93.987961 141.645859,94.110077 
	C139.431046,97.077126 137.560806,99.922058 135.690582,102.766998 
	C135.690582,102.766998 135.855789,102.845322 135.606216,102.877914 
	C135.173111,103.271072 134.989578,103.631645 134.806046,103.992218 
	C134.806046,103.992218 134.955109,103.961060 134.685638,103.983681 
	C134.325897,104.329193 134.235657,104.652092 134.145416,104.974991 
	C133.459167,106.395332 132.950974,107.941490 132.053024,109.212250 
	C129.432571,112.920715 126.656464,116.519188 123.631073,120.575897 
	C122.668404,121.703194 122.016006,122.415359 121.363617,123.127533 
	C121.363609,123.127525 121.142273,123.223778 120.913864,123.516731 
	C120.364548,124.482498 120.043648,125.155319 119.722755,125.828140 
	C119.722755,125.828140 119.802788,125.826218 119.535675,125.961441 
	C118.763077,127.008369 118.257591,127.920082 117.752106,128.831787 
	C117.752106,128.831787 117.837318,128.872055 117.527473,128.983673 
	C115.958054,130.348297 114.698486,131.601303 113.438911,132.854294 
	C113.438911,132.854294 113.137329,132.851517 112.781754,132.994049 
	C112.179123,133.385010 111.932060,133.633438 111.684998,133.881866 
	C111.685005,133.881866 111.712646,133.783432 111.663773,133.768494 
	C97.784637,137.842514 90.267036,127.864304 91.097092,116.851372 
	C91.526405,111.155289 91.172577,105.400192 89.982758,99.295959 
	C83.996651,107.949570 78.010551,116.603180 71.909096,125.581261 
	C67.791206,135.356842 59.849529,135.734787 51.295654,134.920654 
	C48.664665,134.670273 45.989712,134.881775 42.227718,134.881775 
	C43.937309,132.229706 45.170219,130.200180 46.515629,128.248184 
	C58.989281,110.150780 71.450150,92.044304 84.022011,74.015266 
	C85.213181,72.307045 87.135757,71.108849 88.898125,69.390060 
	C89.077484,69.106270 89.046463,69.050728 89.310913,69.016014 
	C89.753975,68.659645 89.932587,68.337982 90.111191,68.016327 
	C90.111191,68.016327 90.045357,68.036949 90.504349,68.088379 
	C93.642029,68.043121 96.320709,67.946442 98.999390,67.849762 
	C99.169418,67.897949 99.339439,67.946136 100.048996,68.172897 
	C102.057411,69.000099 103.526268,69.648712 104.995132,70.297325 
	C109.268211,74.343452 110.776840,79.330269 110.534485,85.147331 
	C110.287628,91.072289 110.479904,97.015549 111.589790,103.390076 
	C114.821236,98.720650 118.048698,94.048462 121.285095,89.382477 
	C125.545998,83.239410 129.634995,76.963264 134.194214,71.049896 
	C135.465195,69.401428 138.084061,68.051979 140.173050,67.915039 
	C146.127991,67.524689 152.128494,67.829430 158.581116,67.912056 
	C158.700272,68.724846 158.349396,69.486237 157.927765,70.556595 
z"/>
<path fill="#1486E1" opacity="1.000000" stroke="none" 
	d="
M70.776276,131.246780 
	C71.091309,132.779388 71.181747,134.559372 70.886246,136.854385 
	C69.999496,138.246063 69.498680,139.122726 68.997864,139.999390 
	C68.498909,140.250244 67.999962,140.501099 67.250999,140.876282 
	C64.475624,140.219879 63.818249,139.117386 65.980927,136.989639 
	C67.670914,135.326950 69.040009,133.338089 70.776276,131.246780 
z"/>
<path fill="#1284DD" opacity="1.000000" stroke="none" 
	d="
M67.572418,69.274033 
	C67.967094,68.382095 68.134293,67.542572 68.610344,67.293587 
	C69.730995,66.707481 70.999023,66.403168 72.207428,65.984848 
	C71.850792,67.409203 71.876465,69.142853 71.038910,70.178139 
	C70.034943,71.419136 68.108788,73.087067 67.572418,69.274033 
z"/>
<path fill="#178ADE" opacity="1.000000" stroke="none" 
	d="
M136.081268,102.779350 
	C137.560806,99.922058 139.431046,97.077126 141.602585,94.076569 
	C142.209610,98.173813 142.224579,102.248634 136.081268,102.779350 
z"/>
<path fill="#178ADE" opacity="1.000000" stroke="none" 
	d="
M149.223343,83.809723 
	C150.322769,81.629547 151.772125,79.387680 153.515381,76.983887 
	C154.196671,80.231163 152.904114,82.612915 149.223343,83.809723 
z"/>
<path fill="#1595DF" opacity="1.000000" stroke="none" 
	d="
M156.269318,89.005341 
	C155.392212,89.492981 154.518066,89.693634 153.643906,89.894287 
	C153.647705,89.293472 153.651520,88.692657 153.655319,88.091843 
	C154.527634,88.300674 155.399933,88.509506 156.269318,89.005341 
z"/>
<path fill="#178ADE" opacity="1.000000" stroke="none" 
	d="
M145.106873,89.761276 
	C145.927399,87.945084 147.101974,86.075546 148.573822,84.051163 
	C147.734390,85.833527 146.597656,87.770729 145.106873,89.761276 
z"/>
<path fill="#1588DD" opacity="1.000000" stroke="none" 
	d="
M113.831558,132.857727 
	C114.698486,131.601303 115.958054,130.348297 117.507126,128.941162 
	C117.856827,129.589645 117.917015,130.392242 117.987122,131.597046 
	C116.739418,132.286530 115.481812,132.573837 113.831558,132.857727 
z"/>
<path fill="#1588DD" opacity="1.000000" stroke="none" 
	d="
M121.699539,123.173782 
	C122.016006,122.415359 122.668404,121.703194 123.632507,120.939262 
	C123.307976,121.665016 122.671715,122.442528 121.699539,123.173782 
z"/>
<path fill="#178ADE" opacity="1.000000" stroke="none" 
	d="
M142.203384,93.798874 
	C142.385544,93.021759 142.870407,92.127380 143.644272,91.097443 
	C143.457550,91.868462 142.981812,92.775040 142.203384,93.798874 
z"/>
<path fill="#1588DD" opacity="1.000000" stroke="none" 
	d="
M118.077301,128.726013 
	C118.257591,127.920082 118.763077,127.008369 119.533142,125.921494 
	C119.332649,126.704292 118.867569,127.662254 118.077301,128.726013 
z"/>
<path fill="#1588DD" opacity="1.000000" stroke="none" 
	d="
M120.022331,125.717850 
	C120.043648,125.155319 120.364548,124.482498 120.917816,123.637344 
	C120.874100,124.179192 120.598007,124.893379 120.022331,125.717850 
z"/>
<path fill="#178ADE" opacity="1.000000" stroke="none" 
	d="
M153.974777,76.747337 
	C153.961563,76.371849 154.153244,75.784431 154.636292,75.080719 
	C154.678314,75.488083 154.428986,76.011749 153.974777,76.747337 
z"/>
<path fill="#178ADE" opacity="1.000000" stroke="none" 
	d="
M135.008759,103.786972 
	C134.989578,103.631645 135.173111,103.271072 135.644348,102.794815 
	C135.691849,102.979996 135.451645,103.280861 135.008759,103.786972 
z"/>
<path fill="#178ADE" opacity="1.000000" stroke="none" 
	d="
M134.292053,104.793320 
	C134.235657,104.652092 134.325897,104.329193 134.669708,103.909225 
	C134.783600,104.091888 134.622070,104.358398 134.292053,104.793320 
z"/>
<path fill="#178ADE" opacity="1.000000" stroke="none" 
	d="
M144.127716,90.778015 
	C144.099243,90.627235 144.253006,90.289825 144.677032,89.857635 
	C144.734848,90.039024 144.522400,90.315201 144.127716,90.778015 
z"/>
<path fill="#178ADE" opacity="1.000000" stroke="none" 
	d="
M155.136612,74.789413 
	C155.118454,74.646065 155.282486,74.325272 155.709656,73.918755 
	C155.754776,74.092674 155.536774,74.352325 155.136612,74.789413 
z"/>
<path fill="#1582DD" opacity="1.000000" stroke="none" 
	d="
M69.307846,139.960510 
	C69.498680,139.122726 69.999496,138.246063 70.749252,137.183899 
	C70.538071,137.972794 70.077950,138.947220 69.307846,139.960510 
z"/>
<path fill="#1582DD" opacity="1.000000" stroke="none" 
	d="
M98.999680,67.543106 
	C96.320709,67.946442 93.642029,68.043121 90.517616,68.120216 
	C92.755417,67.401596 95.438942,66.702560 98.560776,66.006905 
	C98.999374,66.419006 98.999672,66.827728 98.999680,67.543106 
z"/>
<path fill="#1582DD" opacity="1.000000" stroke="none" 
	d="
M105.024666,69.979935 
	C103.526268,69.648712 102.057411,69.000099 100.312317,68.142509 
	C102.126694,67.297012 104.711006,65.227592 105.024666,69.979935 
z"/>
<path fill="#1588DD" opacity="1.000000" stroke="none" 
	d="
M111.911423,133.770233 
	C111.932060,133.633438 112.179123,133.385010 112.701630,133.121796 
	C112.697334,133.290863 112.417587,133.474731 111.911423,133.770233 
z"/>
<path fill="#1582DD" opacity="1.000000" stroke="none" 
	d="
M89.916779,68.185066 
	C89.932587,68.337982 89.753975,68.659645 89.300888,69.046097 
	C89.258400,68.858528 89.490387,68.606171 89.916779,68.185066 
z"/>
</svg>
