<svg version="1.1" id="Layer_1" xmlns="http://www.w3.org/2000/svg" xmlns:xlink="http://www.w3.org/1999/xlink" x="0px" y="0px"
	 width="100%" viewBox="0 0 200 200" enable-background="new 0 0 200 200" xml:space="preserve">
<path fill="#FEFFFF" opacity="1.000000" stroke="none" 
	d="
M143.000000,201.000000 
	C95.333336,201.000000 48.166672,201.000000 1.000006,201.000000 
	C1.000004,134.333344 1.000004,67.666679 1.000002,1.000015 
	C67.666656,1.000010 134.333313,1.000010 200.999969,1.000005 
	C200.999985,67.666649 200.999985,134.333298 201.000000,200.999969 
	C181.833328,201.000000 162.666672,201.000000 143.000000,201.000000 
M149.921799,145.103134 
	C149.968201,116.803047 150.026688,88.502968 150.020676,60.202885 
	C150.020416,58.958561 149.430191,57.714355 149.017776,55.797073 
	C146.624298,54.609314 144.239883,52.410076 141.835968,52.388565 
	C114.548958,52.144421 87.258881,52.197449 59.969833,52.261784 
	C54.182751,52.275433 51.696339,54.792160 51.669613,60.481224 
	C51.611778,72.793327 51.768723,85.106796 51.658649,97.418106 
	C51.622715,101.437309 53.071777,103.115120 57.228840,103.028671 
	C66.543053,102.834999 75.864174,102.947266 85.182343,102.978569 
	C94.531151,103.009972 99.260513,107.683098 99.331459,117.068436 
	C99.401878,126.386131 99.388405,135.705139 99.318336,145.022873 
	C99.289650,148.837296 100.597260,150.920929 104.822006,150.878922 
	C117.134178,150.756500 129.448395,150.842789 141.761810,150.840851 
	C145.363693,150.840286 148.322800,149.797577 149.921799,145.103134 
M55.636177,110.176895 
	C54.636391,110.177475 53.636543,110.171356 52.636822,110.179695 
	C45.027462,110.243187 42.947212,112.344620 42.939198,120.035835 
	C42.928257,130.533569 42.899227,141.031555 42.958076,151.528992 
	C42.988194,156.901245 45.476875,159.608017 50.818535,159.676620 
	C61.814381,159.817856 72.815338,159.853241 83.810043,159.675552 
	C89.805069,159.578690 91.994347,157.028458 92.019699,150.834763 
	C92.062675,140.337204 92.054932,129.839233 92.019485,119.341606 
	C91.996338,112.486107 89.658524,110.231071 82.596199,110.202873 
	C73.931572,110.168274 65.266754,110.182625 55.636177,110.176895 
z"/>
<path fill="#033AFC" opacity="1.000000" stroke="none" 
	d="
M149.515961,145.960083 
	C148.322800,149.797577 145.363693,150.840286 141.761810,150.840851 
	C129.448395,150.842789 117.134178,150.756500 104.822006,150.878922 
	C100.597260,150.920929 99.289650,148.837296 99.318336,145.022873 
	C99.388405,135.705139 99.401878,126.386131 99.331459,117.068436 
	C99.260513,107.683098 94.531151,103.009972 85.182343,102.978569 
	C75.864174,102.947266 66.543053,102.834999 57.228840,103.028671 
	C53.071777,103.115120 51.622715,101.437309 51.658649,97.418106 
	C51.768723,85.106796 51.611778,72.793327 51.669613,60.481224 
	C51.696339,54.792160 54.182751,52.275433 59.969833,52.261784 
	C87.258881,52.197449 114.548958,52.144421 141.835968,52.388565 
	C144.239883,52.410076 146.624298,54.609314 149.020752,56.642616 
	C149.003448,85.854141 148.976807,114.220131 148.986343,142.586105 
	C148.986725,143.710831 149.331604,144.835434 149.515961,145.960083 
z"/>
<path fill="#5D81FB" opacity="1.000000" stroke="none" 
	d="
M56.119095,110.176353 
	C65.266754,110.182625 73.931572,110.168274 82.596199,110.202873 
	C89.658524,110.231071 91.996338,112.486107 92.019485,119.341606 
	C92.054932,129.839233 92.062675,140.337204 92.019699,150.834763 
	C91.994347,157.028458 89.805069,159.578690 83.810043,159.675552 
	C72.815338,159.853241 61.814381,159.817856 50.818535,159.676620 
	C45.476875,159.608017 42.988194,156.901245 42.958076,151.528992 
	C42.899227,141.031555 42.928257,130.533569 42.939198,120.035835 
	C42.947212,112.344620 45.027462,110.243187 52.636822,110.179695 
	C53.636543,110.171356 54.636391,110.177475 56.119095,110.176353 
z"/>
<path fill="#193ABE" opacity="1.000000" stroke="none" 
	d="
M149.718872,145.531616 
	C149.331604,144.835434 148.986725,143.710831 148.986343,142.586105 
	C148.976807,114.220131 149.003448,85.854141 149.069260,56.979126 
	C149.430191,57.714355 150.020416,58.958561 150.020676,60.202885 
	C150.026688,88.502968 149.968201,116.803047 149.718872,145.531616 
z"/>
</svg>
