<svg version="1.1" id="Layer_1" xmlns="http://www.w3.org/2000/svg" xmlns:xlink="http://www.w3.org/1999/xlink" x="0px" y="0px"
	 width="100%" viewBox="0 0 200 200" enable-background="new 0 0 200 200" xml:space="preserve">
<path fill="#0C132D" opacity="1.000000" stroke="none" 
	d="
M88.000000,201.000000 
	C58.666668,201.000000 29.833336,201.000000 1.000004,201.000000 
	C1.000003,134.333344 1.000003,67.666679 1.000001,1.000013 
	C67.666656,1.000009 134.333313,1.000009 200.999969,1.000004 
	C200.999985,67.666649 200.999985,134.333298 201.000000,200.999969 
	C163.500000,201.000000 126.000000,201.000000 88.000000,201.000000 
M89.001297,90.223564 
	C89.547203,84.599007 91.980354,82.149963 98.178307,80.959900 
	C107.091629,79.248482 114.825195,81.958618 121.910088,87.804909 
	C124.207275,84.765945 126.253975,82.058342 128.259399,79.405342 
	C117.852158,69.213699 99.165482,66.500465 87.010910,73.167732 
	C81.628304,76.120323 77.895905,80.359634 76.972214,86.655357 
	C75.503540,96.665573 80.025833,103.903900 90.597748,107.557671 
	C97.354271,109.892807 104.373734,111.457619 111.180771,113.660004 
	C114.807205,114.833321 117.911842,117.081604 117.842720,121.432701 
	C117.771187,125.935471 114.543037,128.106384 110.765953,129.498962 
	C109.221519,130.068390 107.546677,130.374115 105.903740,130.571518 
	C96.455864,131.706711 88.198692,128.902039 80.827827,122.318542 
	C78.623695,125.187897 76.635857,127.775681 74.546959,130.495026 
	C75.379349,131.446243 75.917419,132.304337 76.669846,132.884369 
	C87.555206,141.275574 99.775795,143.634964 112.970634,140.266998 
	C123.969254,137.459610 129.899521,130.509705 130.185120,120.967773 
	C130.470673,111.426926 125.902588,105.906219 114.203369,102.179474 
	C108.983101,100.516579 103.405739,99.828621 98.378479,97.756653 
	C94.958450,96.347099 92.212082,93.303009 89.001297,90.223564 
M169.404755,41.385975 
	C158.848175,41.385975 148.291595,41.385975 138.640869,41.385975 
	C151.686218,54.479675 164.732498,67.574310 177.888290,80.778862 
	C177.888290,70.396530 177.927719,59.635529 177.875626,48.874969 
	C177.834961,40.477310 178.671127,41.468517 169.404755,41.385975 
z"/>
<path fill="#F5F6F7" opacity="1.000000" stroke="none" 
	d="
M89.082886,90.606697 
	C92.212082,93.303009 94.958450,96.347099 98.378479,97.756653 
	C103.405739,99.828621 108.983101,100.516579 114.203369,102.179474 
	C125.902588,105.906219 130.470673,111.426926 130.185120,120.967773 
	C129.899521,130.509705 123.969254,137.459610 112.970634,140.266998 
	C99.775795,143.634964 87.555206,141.275574 76.669846,132.884369 
	C75.917419,132.304337 75.379349,131.446243 74.546959,130.495026 
	C76.635857,127.775681 78.623695,125.187897 80.827827,122.318542 
	C88.198692,128.902039 96.455864,131.706711 105.903740,130.571518 
	C107.546677,130.374115 109.221519,130.068390 110.765953,129.498962 
	C114.543037,128.106384 117.771187,125.935471 117.842720,121.432701 
	C117.911842,117.081604 114.807205,114.833321 111.180771,113.660004 
	C104.373734,111.457619 97.354271,109.892807 90.597748,107.557671 
	C80.025833,103.903900 75.503540,96.665573 76.972214,86.655357 
	C77.895905,80.359634 81.628304,76.120323 87.010910,73.167732 
	C99.165482,66.500465 117.852158,69.213699 128.259399,79.405342 
	C126.253975,82.058342 124.207275,84.765945 121.910088,87.804909 
	C114.825195,81.958618 107.091629,79.248482 98.178307,80.959900 
	C91.980354,82.149963 89.547203,84.599007 89.082886,90.606697 
z"/>
<path fill="#4C95DE" opacity="1.000000" stroke="none" 
	d="
M169.885773,41.386292 
	C178.671127,41.468517 177.834961,40.477310 177.875626,48.874969 
	C177.927719,59.635529 177.888290,70.396530 177.888290,80.778862 
	C164.732498,67.574310 151.686218,54.479675 138.640869,41.385975 
	C148.291595,41.385975 158.848175,41.385975 169.885773,41.386292 
z"/>
</svg>
